<svg viewBox="0 0 1063.4000244140625 400" xmlns="http://www.w3.org/2000/svg"><g><g><g><g><g><line x1="42.390625" y1="376" x2="37.390625" y2="376" style="visibility: inherit;" fill="rgb(0, 0, 0)" stroke="rgb(204, 204, 204)" stroke-width="1px"></line><line x1="42.390625" y1="334.22222222222223" x2="37.390625" y2="334.22222222222223" style="visibility: inherit;" fill="rgb(0, 0, 0)" stroke="rgb(204, 204, 204)" stroke-width="1px"></line><line x1="42.390625" y1="292.44444444444446" x2="37.390625" y2="292.44444444444446" style="visibility: inherit;" fill="rgb(0, 0, 0)" stroke="rgb(204, 204, 204)" stroke-width="1px"></line><line x1="42.390625" y1="250.66666666666669" x2="37.390625" y2="250.66666666666669" style="visibility: inherit;" fill="rgb(0, 0, 0)" stroke="rgb(204, 204, 204)" stroke-width="1px"></line><line x1="42.390625" y1="208.88888888888889" x2="37.390625" y2="208.88888888888889" style="visibility: inherit;" fill="rgb(0, 0, 0)" stroke="rgb(204, 204, 204)" stroke-width="1px"></line><line x1="42.390625" y1="167.11111111111111" x2="37.390625" y2="167.11111111111111" style="visibility: inherit;" fill="rgb(0, 0, 0)" stroke="rgb(204, 204, 204)" stroke-width="1px"></line><line x1="42.390625" y1="125.33333333333334" x2="37.390625" y2="125.33333333333334" style="visibility: inherit;" fill="rgb(0, 0, 0)" stroke="rgb(204, 204, 204)" stroke-width="1px"></line><line x1="42.390625" y1="83.55555555555556" x2="37.390625" y2="83.55555555555556" style="visibility: inherit;" fill="rgb(0, 0, 0)" stroke="rgb(204, 204, 204)" stroke-width="1px"></line><line x1="42.390625" y1="41.7777777777778" x2="37.390625" y2="41.7777777777778" style="visibility: inherit;" fill="rgb(0, 0, 0)" stroke="rgb(204, 204, 204)" stroke-width="1px"></line><line x1="42.390625" y1="0" x2="37.390625" y2="0" style="visibility: inherit;" fill="rgb(0, 0, 0)" stroke="rgb(204, 204, 204)" stroke-width="1px"></line></g><g transform="translate(32.390625, 0)"><text x="0" y="376" dx="0em" dy="0.3em" style="text-anchor: end; visibility: hidden; font-family: Roboto, sans-serif; font-size: 12px; font-weight: 200;" fill="rgb(33, 33, 33)" stroke="none" stroke-width="1px">84</text><text x="0" y="334.22222222222223" dx="0em" dy="0.3em" style="text-anchor: end; visibility: inherit; font-family: Roboto, sans-serif; font-size: 12px; font-weight: 200;" fill="rgb(33, 33, 33)" stroke="none" stroke-width="1px">86</text><text x="0" y="292.44444444444446" dx="0em" dy="0.3em" style="text-anchor: end; visibility: inherit; font-family: Roboto, sans-serif; font-size: 12px; font-weight: 200;" fill="rgb(33, 33, 33)" stroke="none" stroke-width="1px">88</text><text x="0" y="250.66666666666669" dx="0em" dy="0.3em" style="text-anchor: end; visibility: inherit; font-family: Roboto, sans-serif; font-size: 12px; font-weight: 200;" fill="rgb(33, 33, 33)" stroke="none" stroke-width="1px">90</text><text x="0" y="208.88888888888889" dx="0em" dy="0.3em" style="text-anchor: end; visibility: inherit; font-family: Roboto, sans-serif; font-size: 12px; font-weight: 200;" fill="rgb(33, 33, 33)" stroke="none" stroke-width="1px">92</text><text x="0" y="167.11111111111111" dx="0em" dy="0.3em" style="text-anchor: end; visibility: inherit; font-family: Roboto, sans-serif; font-size: 12px; font-weight: 200;" fill="rgb(33, 33, 33)" stroke="none" stroke-width="1px">94</text><text x="0" y="125.33333333333334" dx="0em" dy="0.3em" style="text-anchor: end; visibility: inherit; font-family: Roboto, sans-serif; font-size: 12px; font-weight: 200;" fill="rgb(33, 33, 33)" stroke="none" stroke-width="1px">96</text><text x="0" y="83.55555555555556" dx="0em" dy="0.3em" style="text-anchor: end; visibility: inherit; font-family: Roboto, sans-serif; font-size: 12px; font-weight: 200;" fill="rgb(33, 33, 33)" stroke="none" stroke-width="1px">98</text><text x="0" y="41.7777777777778" dx="0em" dy="0.3em" style="text-anchor: end; visibility: inherit; font-family: Roboto, sans-serif; font-size: 12px; font-weight: 200;" fill="rgb(33, 33, 33)" stroke="none" stroke-width="1px">100</text><text x="0" y="0" dx="0em" dy="0.3em" style="text-anchor: end; visibility: hidden; font-family: Roboto, sans-serif; font-size: 12px; font-weight: 200;" fill="rgb(33, 33, 33)" stroke="none" stroke-width="1px">102</text></g><line x1="42.390625" y1="0" x2="42.390625" y2="376" fill="rgb(0, 0, 0)" stroke="rgb(204, 204, 204)" stroke-width="1px"></line></g></g><g transform="translate(42, 0)" clip-path="url(#clip_0)"><clipPath id="clip_0"><rect width="1021" height="376"></rect></clipPath><g><g><g><line x1="0" y1="0" x2="0" y2="376" fill="rgb(0, 0, 0)" stroke="rgb(66, 66, 66)" stroke-width="1px" opacity="0.25"></line><line x1="72.92924107142858" y1="0" x2="72.92924107142858" y2="376" fill="rgb(0, 0, 0)" stroke="rgb(66, 66, 66)" stroke-width="1px" opacity="0.25"></line><line x1="145.85848214285716" y1="0" x2="145.85848214285716" y2="376" fill="rgb(0, 0, 0)" stroke="rgb(66, 66, 66)" stroke-width="1px" opacity="0.25"></line><line x1="218.78772321428573" y1="0" x2="218.78772321428573" y2="376" fill="rgb(0, 0, 0)" stroke="rgb(66, 66, 66)" stroke-width="1px" opacity="0.25"></line><line x1="291.7169642857143" y1="0" x2="291.7169642857143" y2="376" fill="rgb(0, 0, 0)" stroke="rgb(66, 66, 66)" stroke-width="1px" opacity="0.25"></line><line x1="364.6462053571429" y1="0" x2="364.6462053571429" y2="376" fill="rgb(0, 0, 0)" stroke="rgb(66, 66, 66)" stroke-width="1px" opacity="0.25"></line><line x1="437.57544642857147" y1="0" x2="437.57544642857147" y2="376" fill="rgb(0, 0, 0)" stroke="rgb(66, 66, 66)" stroke-width="1px" opacity="0.25"></line><line x1="510.50468750000005" y1="0" x2="510.50468750000005" y2="376" fill="rgb(0, 0, 0)" stroke="rgb(66, 66, 66)" stroke-width="1px" opacity="0.25"></line><line x1="583.4339285714286" y1="0" x2="583.4339285714286" y2="376" fill="rgb(0, 0, 0)" stroke="rgb(66, 66, 66)" stroke-width="1px" opacity="0.25"></line><line x1="656.3631696428572" y1="0" x2="656.3631696428572" y2="376" fill="rgb(0, 0, 0)" stroke="rgb(66, 66, 66)" stroke-width="1px" opacity="0.25"></line><line x1="729.2924107142858" y1="0" x2="729.2924107142858" y2="376" fill="rgb(0, 0, 0)" stroke="rgb(66, 66, 66)" stroke-width="1px" opacity="0.25"></line><line x1="802.2216517857144" y1="0" x2="802.2216517857144" y2="376" fill="rgb(0, 0, 0)" stroke="rgb(66, 66, 66)" stroke-width="1px" opacity="0.25"></line><line x1="875.1508928571429" y1="0" x2="875.1508928571429" y2="376" fill="rgb(0, 0, 0)" stroke="rgb(66, 66, 66)" stroke-width="1px" opacity="0.25"></line><line x1="948.0801339285715" y1="0" x2="948.0801339285715" y2="376" fill="rgb(0, 0, 0)" stroke="rgb(66, 66, 66)" stroke-width="1px" opacity="0.25"></line><line x1="1021.0093750000001" y1="0" x2="1021.0093750000001" y2="376" fill="rgb(0, 0, 0)" stroke="rgb(66, 66, 66)" stroke-width="1px" opacity="0.25"></line></g><g><line x1="0" y1="376" x2="1021.0093750000001" y2="376" fill="rgb(0, 0, 0)" stroke="rgb(66, 66, 66)" stroke-width="1px" opacity="0.25"></line><line x1="0" y1="334.22222222222223" x2="1021.0093750000001" y2="334.22222222222223" fill="rgb(0, 0, 0)" stroke="rgb(66, 66, 66)" stroke-width="1px" opacity="0.25"></line><line x1="0" y1="292.44444444444446" x2="1021.0093750000001" y2="292.44444444444446" fill="rgb(0, 0, 0)" stroke="rgb(66, 66, 66)" stroke-width="1px" opacity="0.25"></line><line x1="0" y1="250.66666666666669" x2="1021.0093750000001" y2="250.66666666666669" fill="rgb(0, 0, 0)" stroke="rgb(66, 66, 66)" stroke-width="1px" opacity="0.25"></line><line x1="0" y1="208.88888888888889" x2="1021.0093750000001" y2="208.88888888888889" fill="rgb(0, 0, 0)" stroke="rgb(66, 66, 66)" stroke-width="1px" opacity="0.25"></line><line x1="0" y1="167.11111111111111" x2="1021.0093750000001" y2="167.11111111111111" fill="rgb(0, 0, 0)" stroke="rgb(66, 66, 66)" stroke-width="1px" opacity="0.25"></line><line x1="0" y1="125.33333333333334" x2="1021.0093750000001" y2="125.33333333333334" fill="rgb(0, 0, 0)" stroke="rgb(66, 66, 66)" stroke-width="1px" opacity="0.25"></line><line x1="0" y1="83.55555555555556" x2="1021.0093750000001" y2="83.55555555555556" fill="rgb(0, 0, 0)" stroke="rgb(66, 66, 66)" stroke-width="1px" opacity="0.25"></line><line x1="0" y1="41.7777777777778" x2="1021.0093750000001" y2="41.7777777777778" fill="rgb(0, 0, 0)" stroke="rgb(66, 66, 66)" stroke-width="1px" opacity="0.25"></line><line x1="0" y1="0" x2="1021.0093750000001" y2="0" fill="rgb(0, 0, 0)" stroke="rgb(66, 66, 66)" stroke-width="1px" opacity="0.25"></line></g></g></g><g><g><line x1="0" y1="2130.666666666667" x2="1021.0093750000001" y2="2130.666666666667" fill="rgb(0, 0, 0)" stroke="rgb(153, 153, 153)" stroke-width="1.5px"></line></g></g><g><g><line x1="72.92924107142858" y1="0" x2="72.92924107142858" y2="376" fill="rgb(0, 0, 0)" stroke="rgb(153, 153, 153)" stroke-width="1.5px"></line></g></g><g><g><g><g><g><path stroke="rgb(255, 112, 67)" stroke-width="2px" d="M113.0403236607143,377.9542240192429L116.68678571428572,357.76127467930917L120.33324776785715,337.5845719384701L123.97970982142859,321.4928664836727L127.62617187500001,306.1927164837561L131.27263392857142,295.6114245514897L134.91909598214286,282.9797889849287L138.56555803571428,269.5858148115814L142.21202008928574,258.65881914212935L145.85848214285716,247.80802816989384L149.5049441964286,238.2729590863642L153.15140625,229.84479748799941L156.79786830357145,221.228438685171L160.44433035714286,211.37954551857516L164.0907924107143,206.48955707735723L167.73725446428574,200.06294967405182L171.38371651785715,191.67827707949732L175.0301785714286,183.4890894239153L178.676640625,177.80684351143415L182.32310267857144,172.96036550089497L185.96956473214286,168.6153479152354L189.6160267857143,161.99764267792455L193.26248883928574,156.7569716870719L196.90895089285718,151.3231295876686L200.5554129464286,146.14108228899528L204.20187500000003,142.3132884013572L207.84833705357144,137.84414978203196L211.49479910714288,133.8592147409835L215.1412611607143,129.74699856565536L218.78772321428573,127.32977465828785L222.43418526785717,124.42560730659599L226.0806473214286,121.14570048327094L229.72710937500003,117.74056156541414L233.37357142857144,111.93750371381878L237.02003348214288,109.64214361269667L240.6664955357143,108.28162948353943L244.31295758928576,105.61038665273723L247.95941964285717,104.5257195675828L251.6058816964286,102.22047188810065L255.25234375000002,98.89887926999712L258.89880580357146,96.02021135105241L262.54526785714285,94.2429048054199L266.19172991071434,92.1571293307326L269.8381919642857,89.58544648949699L273.48465401785717,87.89205565411392L277.13111607142855,87.00970035210358L280.77757812500005,84.79249962749466L284.4240401785715,84.13063893665296L288.07050223214287,84.26823931902295L291.7169642857143,81.17571138655278L295.36342633928575,79.8549114239458L299.0098883928572,78.04310364690198L302.6563504464286,76.23738969465151L306.3028125,74.05106011887413L309.94927455357146,72.88964350404993L313.5957366071429,72.84455134765577L317.24219866071434,70.86228636414907L320.8886607142857,68.85408649947915L324.53512276785716,69.30355026123256L328.1815848214286,69.00504411073224L331.82804687500004,70.26313524465121L335.4745089285715,68.96250489896097L339.12097098214286,66.36059620109552L342.7674330357143,65.36763538992815L346.41389508928575,65.00581343881794L350.0603571428572,63.85290212579076L353.70681919642857,63.46198134708906L357.35328125,63.07698400139563L360.9997433035715,62.0439103986671L364.6462053571429,61.02296489154413L368.29266741071433,60.878306658450796L371.9391294642857,60.741405924324084L375.5855915178572,60.96002774513262L379.2320535714286,60.15538269525666L382.87851562500003,60.090398942240846L386.5249776785715,59.63360541352142L390.17143973214286,59.07546896642895L393.81790178571435,58.606907898954454L397.46436383928574,58.375877052740684L401.1108258928572,57.63567027461314L404.75728794642856,57.458904606174144L408.40375000000006,56.68438546118723L412.0502120535715,55.935613644333685L415.6966741071429,55.9542596254023L419.3431361607143,55.88187380909553L422.98959821428576,55.92201572425928L426.6360602678572,56.21345927179516L430.2825223214286,55.63635599927524L433.928984375,54.77201542248169L437.57544642857147,54.103029945763254L441.2219084821429,53.81861592752725L444.86837053571435,52.96280584123852L448.51483258928573,52.883824997798584L452.1612946428572,52.218146289911694L455.8077566964286,52.55400653479766L459.45421875000005,52.88920188094799L463.1006808035715,52.20460674054803L466.7471428571429,52.44560746880779L470.3936049107143,52.95784164057297L474.04006696428576,52.63019001038559L477.6865290178572,53.50309637385291L481.3329910714286,52.50613571059628L484.979453125,51.33977490509035L488.6259151785715,51.8431349625854L492.2723772321429,51.64383806305486L495.91883928571434,52.77760600623593L499.5653013392857,51.736611618064224L503.2117633928572,51.63002985061271L506.8582254464286,50.42977572286773L510.50468750000005,49.325223832158265L514.1511495535715,49.41452584660398L517.7976116071429,49.267556382528134L521.4440736607143,48.79503903785026L525.0905357142857,48.4613590889426L528.7369977678572,49.11345960484134L532.3834598214287,49.18719197384212L536.029921875,48.46269631494762L539.6763839285715,48.62958719001026L543.3228459821429,49.4483510010721L546.9693080357143,49.77246247781329L550.6157700892858,48.63007362384087L554.2622321428571,48.27887018341912L557.9086941964285,47.700450636527115L561.5551562500001,46.634833370197704L565.2016183035715,45.41057667142431L568.848080357143,44.408664253722606L572.4945424107143,43.84092066594884L576.1410044642857,43.36659531406609L579.7874665178572,43.06529817151247L583.4339285714286,43.001497153775404L587.0803906250001,42.77936780181389L590.7268526785715,42.59598439636616L594.373314732143,42.46925242167383L598.0197767857144,42.4600209625531L601.6662388392858,42.304100956437985L605.3127008928572,42.34422815198777L608.9591629464286,42.28473106436977L612.605625,42.26579849105255L616.2520870535715,42.271140878485554L619.8985491071429,42.25764437952197L623.5450111607144,42.28295034299097L627.1914732142858,42.16445472185365L630.8379352678572,42.27714234266086L634.4843973214287,42.19437378450269L638.130859375,42.161414581031735L641.7773214285714,42.17504292179625L645.4237834821429,42.183219926254566L649.0702455357143,42.104616471811916L652.7167075892858,42.09085826199339L656.3631696428572,42.01573186257784L660.0096316964286,42.08763329072393L663.6560937500001,42.01379687981622L667.3025558035715,42.00296264394879L670.949017857143,41.99646210242825L674.5954799107143,41.97585984609224L678.2419419642857,42.047008149408825L681.8884040178572,42.12316474207571L685.5348660714286,42.06858336130424L689.181328125,42.01913260141789L692.8277901785715,41.9894621454862L696.4742522321429,41.97165987192721L700.1207142857144,42.02778623348625L703.7671763392858,42.044760118998255L707.4136383928571,41.97137104535727L711.0601004464286,41.96080521184967L714.7065625,41.937700032491634L718.3530245535716,41.97400646697754L721.999486607143,42.01249225909272L725.6459486607143,41.9520103294139L729.2924107142858,41.99929457655461L732.9388727678572,41.99426126199195L736.5853348214287,41.99124127325421L740.2317968750001,41.97272734858781L743.8782589285714,41.978320925211726L747.5247209821429,41.964975139762466L751.1711830357144,41.94020198923942L754.8176450892859,41.99220957244998L758.4641071428572,41.97330832810555L762.1105691964286,41.92849997082174L765.7570312500001,41.901614956451326L769.4034933035715,41.91895155850611L773.049955357143,41.912587840485585L776.6964174107143,41.95893915177375L780.3428794642857,42.00345186997073L783.9893415178573,42.01345756946498L787.6358035714287,41.96929144706078L791.282265625,41.95955745287195L794.9287276785715,41.920249445681314L798.5751897321429,41.98023804631495L802.2216517857144,41.96612541242444L805.8681138392858,42.00776362636104L809.5145758928571,41.982640760451986L813.1610379464286,41.9675670409066L816.8075000000001,41.94175712992591L820.4539620535716,41.97644072543832L824.100424107143,41.980548951322014L827.7468861607143,41.94954627617504L831.3933482142858,41.94771035034039L835.0398102678572,41.96331072626344L838.6862723214286,41.972670951817044L842.3327343750001,41.928117545048615L845.9791964285715,41.88468356956395L849.625658482143,41.95889852064467L853.2721205357144,41.936556017768886L856.9185825892858,41.92315051604327L860.5650446428572,41.981978688532436L864.2115066964286,41.98387172917845L867.85796875,41.93483801146522L871.5044308035715,41.88871584941398L875.1508928571429,41.96131788855486L878.7973549107144,41.95477331776826L882.4438169642858,41.967548506719936L886.0902790178573,41.958511688667265L889.7367410714287,41.986493460683135L893.3832031250001,41.953112981791705L897.0296651785715,41.93308469445708L900.6761272321429,41.987939195580594L904.3225892857143,41.970746101983835L907.9690513392858,41.92696263514864L911.6155133928572,41.934160165724585L915.2619754464287,41.90501107339301L918.9084375000001,41.92098922867119L922.5548995535715,41.93057612183817L926.201361607143,41.95303018916194L929.8478236607143,41.99990649240364L933.4942857142858,41.961160800824075L937.1407477678572,41.90450952302934L940.7872098214286,41.87051875635257L944.4336718750001,41.933697701294044" style="fill: none;" fill="none"></path></g></g></g></g><g opacity="0.2"><g><g><g><path stroke="rgb(255, 112, 67)" stroke-width="2px" d="M105.74739955357144,381.26397705078125L109.39386160714287,360.66753133138025L113.0403236607143,339.1937561035156L116.68678571428572,327.5377841525608L120.33324776785715,307.35904608832465L123.97970982142859,297.37422349717883L127.62617187500001,283.25328233506946L131.27263392857142,279.74396430121527L134.91909598214286,264.03554280598956L138.56555803571428,249.4968939887153L142.21202008928574,242.26932440863717L145.85848214285716,231.53243679470486L149.5049441964286,223.97066921657986L153.15140625,217.20272148980033L156.79786830357145,208.3040025499132L160.44433035714286,196.6062757703993L164.0907924107143,199.1545952690972L167.73725446428574,190.42305501302081L171.38371651785715,179.10128106011283L175.0301785714286,171.20531548394095L178.676640625,169.28347778320312L182.32310267857144,165.69065009223092L185.96956473214286,162.09782240125867L189.6160267857143,152.07108561197916L193.26248883928574,148.89596557617188L196.90895089285718,143.172366672092L200.5554129464286,138.36801147460938L204.20187500000003,136.57159762912326L207.84833705357144,131.14044189453125L211.49479910714288,127.88181220160592L215.1412611607143,123.57867431640625L218.78772321428573,123.70393880208334L222.43418526785717,120.06935628255209L226.0806473214286,116.22584025065103L229.72710937500003,112.63285319010416L233.37357142857144,103.23291693793405L237.02003348214288,106.19910346137155L240.6664955357143,106.24085828993056L244.31295758928576,101.60352240668405L247.95941964285717,102.89871893988717L251.6058816964286,98.7626003689236L255.25234375000002,93.91649034288194L258.89880580357146,91.70220947265625L262.54526785714285,91.57694498697916L266.19172991071434,89.02846611870658L269.8381919642857,85.72792222764757L273.48465401785717,85.35196940104166L277.13111607142855,85.68616739908853L280.77757812500005,81.46669854058158L284.4240401785715,83.13784790039062L288.07050223214287,84.47463989257812L291.7169642857143,76.5369194878472L295.36342633928575,77.8737114800347L299.0098883928572,75.32539198133681L302.6563504464286,73.52881876627603L306.3028125,70.77156575520834L309.94927455357146,71.14751858181423L313.5957366071429,72.77691311306423L317.24219866071434,67.8888888888889L320.8886607142857,65.84178670247397L324.53512276785716,69.97774590386283L328.1815848214286,68.55728488498265L331.82804687500004,72.15027194552952L335.4745089285715,67.01155938042533L339.12097098214286,62.457733154296875L342.7674330357143,63.8781941731771L346.41389508928575,64.4630805121528L350.0603571428572,62.12353515625L353.70681919642857,62.875600179036475L357.35328125,62.499487982855925L360.9997433035715,60.494299994574675L364.6462053571429,59.491546630859375L368.29266741071433,60.661319308810775L371.9391294642857,60.536054823133675L375.5855915178572,61.287960476345475L379.2320535714286,58.948415120442725L382.87851562500003,59.992923312717025L386.5249776785715,58.948415120442725L390.17143973214286,58.238264295789925L393.81790178571435,57.90406629774305L397.46436383928574,58.02933078342015L401.1108258928572,56.525360107421875L404.75728794642856,57.193756103515625L408.40375000000006,55.522606743706575L412.0502120535715,54.812455919053825L415.6966741071429,55.982228597005225L419.3431361607143,55.7732950846354L422.98959821428576,55.982228597005225L426.6360602678572,56.650624593098975L430.2825223214286,54.770701090494775L433.928984375,53.47550455729165L437.57544642857147,53.099551730685775L441.2219084821429,53.3919949001736L444.86837053571435,51.67909071180555L448.51483258928573,52.7653537326389L452.1612946428572,51.219628228081575L455.8077566964286,53.057796902126725L459.45421875000005,53.3919949001736L463.1006808035715,51.1777140299479L466.7471428571429,52.8071085611979L470.3936049107143,53.726192898220475L474.04006696428576,52.13871256510415L477.6865290178572,54.812455919053825L481.3329910714286,51.0106947157118L484.979453125,49.590233696831575L488.6259151785715,52.598175048828125L492.2723772321429,51.344892713758675L495.91883928571434,54.47825792100695L499.5653013392857,50.175120035807275L503.2117633928572,51.470157199435775L506.8582254464286,48.62939453125L510.50468750000005,47.66839599609375L514.1511495535715,49.548478868272575L517.7976116071429,49.047102186414925L521.4440736607143,48.08626302083335L525.0905357142857,47.960839165581575L528.7369977678572,50.091610378689225L532.3834598214287,49.29779052734375L536.029921875,47.375952826605925L539.6763839285715,48.87992350260415L543.3228459821429,50.676496717664925L546.9693080357143,50.258629692925325L550.6157700892858,46.91649034288195L554.2622321428571,47.752065022786475L557.9086941964285,46.832821316189225L561.5551562500001,45.036407470703125L565.2016183035715,43.5741916232639L568.848080357143,42.90579562717015L572.4945424107143,42.9893052842882L576.1410044642857,42.655107286241325L579.7874665178572,42.613352457682275L583.4339285714286,42.90579562717015L587.0803906250001,42.44617377387155L590.7268526785715,42.32090928819445L594.373314732143,42.2791544596354L598.0197767857144,42.44617377387155L601.6662388392858,42.070220947265625L605.3127008928572,42.4044189453125L608.9591629464286,42.195485432942725L612.605625,42.2373996310764L616.2520870535715,42.2791544596354L619.8985491071429,42.2373996310764L623.5450111607144,42.32090928819445L627.1914732142858,41.986711290147575L630.8379352678572,42.44617377387155L634.4843973214287,42.070220947265625L638.130859375,42.111975775824675L641.7773214285714,42.195485432942725L645.4237834821429,42.195485432942725L649.0702455357143,41.986711290147575L652.7167075892858,42.070220947265625L656.3631696428572,41.90304226345485L660.0096316964286,42.195485432942725L663.6560937500001,41.90304226345485L667.3025558035715,41.986711290147575L670.949017857143,41.986711290147575L674.5954799107143,41.944956461588525L678.2419419642857,42.153730604383675L681.8884040178572,42.2373996310764L685.5348660714286,41.986711290147575L689.181328125,41.944956461588525L692.8277901785715,41.944956461588525L696.4742522321429,41.944956461588525L700.1207142857144,42.111975775824675L703.7671763392858,42.070220947265625L707.4136383928571,41.86128743489585L711.0601004464286,41.944956461588525L714.7065625,41.90304226345485L718.3530245535716,42.028466118706575L721.999486607143,42.070220947265625L725.6459486607143,41.86128743489585L729.2924107142858,42.070220947265625L732.9388727678572,41.986711290147575L736.5853348214287,41.986711290147575L740.2317968750001,41.944956461588525L743.8782589285714,41.986711290147575L747.5247209821429,41.944956461588525L751.1711830357144,41.90304226345485L754.8176450892859,42.070220947265625L758.4641071428572,41.944956461588525L762.1105691964286,41.86128743489585L765.7570312500001,41.86128743489585L769.4034933035715,41.944956461588525L773.049955357143,41.90304226345485L776.6964174107143,42.028466118706575L780.3428794642857,42.070220947265625L783.9893415178573,42.028466118706575L787.6358035714287,41.90304226345485L791.282265625,41.944956461588525L794.9287276785715,41.86128743489585L798.5751897321429,42.070220947265625L802.2216517857144,41.944956461588525L805.8681138392858,42.070220947265625L809.5145758928571,41.944956461588525L813.1610379464286,41.944956461588525L816.8075000000001,41.90304226345485L820.4539620535716,42.028466118706575L824.100424107143,41.986711290147575L827.7468861607143,41.90304226345485L831.3933482142858,41.944956461588525L835.0398102678572,41.986711290147575L838.6862723214286,41.986711290147575L842.3327343750001,41.86128743489585L845.9791964285715,41.8195326063368L849.625658482143,42.070220947265625L853.2721205357144,41.90304226345485L856.9185825892858,41.90304226345485L860.5650446428572,42.070220947265625L864.2115066964286,41.986711290147575L867.85796875,41.86128743489585L871.5044308035715,41.8195326063368L875.1508928571429,42.070220947265625L878.7973549107144,41.944956461588525L882.4438169642858,41.986711290147575L886.0902790178573,41.944956461588525L889.7367410714287,42.028466118706575L893.3832031250001,41.90304226345485L897.0296651785715,41.90304226345485L900.6761272321429,42.070220947265625L904.3225892857143,41.944956461588525L907.9690513392858,41.86128743489585L911.6155133928572,41.944956461588525L915.2619754464287,41.86128743489585L918.9084375000001,41.944956461588525L922.5548995535715,41.944956461588525L926.201361607143,41.986711290147575L929.8478236607143,42.070220947265625L933.4942857142858,41.90304226345485L937.1407477678572,41.8195326063368L940.7872098214286,41.8195326063368L944.4336718750001,42.028466118706575" style="fill: none;" fill="none"></path></g></g></g></g></g><g><g opacity="0.00629604"><span fill="rgb(0, 0, 0)" stroke="none" stroke-width="1px">Alt + Scroll to Zoom</span></g></g></g><g transform="translate(42, 376)" clip-path="url(#clip_1)"><clipPath id="clip_1"><rect width="1021" height="24"></rect></clipPath><g><g><line x1="0" y1="0" x2="0" y2="5" style="visibility: inherit;" fill="rgb(0, 0, 0)" stroke="rgb(204, 204, 204)" stroke-width="1px"></line><line x1="72.92924107142858" y1="0" x2="72.92924107142858" y2="5" style="visibility: inherit;" fill="rgb(0, 0, 0)" stroke="rgb(204, 204, 204)" stroke-width="1px"></line><line x1="145.85848214285716" y1="0" x2="145.85848214285716" y2="5" style="visibility: inherit;" fill="rgb(0, 0, 0)" stroke="rgb(204, 204, 204)" stroke-width="1px"></line><line x1="218.78772321428573" y1="0" x2="218.78772321428573" y2="5" style="visibility: inherit;" fill="rgb(0, 0, 0)" stroke="rgb(204, 204, 204)" stroke-width="1px"></line><line x1="291.7169642857143" y1="0" x2="291.7169642857143" y2="5" style="visibility: inherit;" fill="rgb(0, 0, 0)" stroke="rgb(204, 204, 204)" stroke-width="1px"></line><line x1="364.6462053571429" y1="0" x2="364.6462053571429" y2="5" style="visibility: inherit;" fill="rgb(0, 0, 0)" stroke="rgb(204, 204, 204)" stroke-width="1px"></line><line x1="437.57544642857147" y1="0" x2="437.57544642857147" y2="5" style="visibility: inherit;" fill="rgb(0, 0, 0)" stroke="rgb(204, 204, 204)" stroke-width="1px"></line><line x1="510.50468750000005" y1="0" x2="510.50468750000005" y2="5" style="visibility: inherit;" fill="rgb(0, 0, 0)" stroke="rgb(204, 204, 204)" stroke-width="1px"></line><line x1="583.4339285714286" y1="0" x2="583.4339285714286" y2="5" style="visibility: inherit;" fill="rgb(0, 0, 0)" stroke="rgb(204, 204, 204)" stroke-width="1px"></line><line x1="656.3631696428572" y1="0" x2="656.3631696428572" y2="5" style="visibility: inherit;" fill="rgb(0, 0, 0)" stroke="rgb(204, 204, 204)" stroke-width="1px"></line><line x1="729.2924107142858" y1="0" x2="729.2924107142858" y2="5" style="visibility: inherit;" fill="rgb(0, 0, 0)" stroke="rgb(204, 204, 204)" stroke-width="1px"></line><line x1="802.2216517857144" y1="0" x2="802.2216517857144" y2="5" style="visibility: inherit;" fill="rgb(0, 0, 0)" stroke="rgb(204, 204, 204)" stroke-width="1px"></line><line x1="875.1508928571429" y1="0" x2="875.1508928571429" y2="5" style="visibility: inherit;" fill="rgb(0, 0, 0)" stroke="rgb(204, 204, 204)" stroke-width="1px"></line><line x1="948.0801339285715" y1="0" x2="948.0801339285715" y2="5" style="visibility: inherit;" fill="rgb(0, 0, 0)" stroke="rgb(204, 204, 204)" stroke-width="1px"></line><line x1="1021.0093750000001" y1="0" x2="1021.0093750000001" y2="5" style="visibility: inherit;" fill="rgb(0, 0, 0)" stroke="rgb(204, 204, 204)" stroke-width="1px"></line></g><g transform="translate(0, 8)"><text x="0" y="0" dx="0em" dy="0.95em" style="text-anchor: middle; visibility: hidden; font-family: Roboto, sans-serif; font-size: 12px; font-weight: 200;" fill="rgb(33, 33, 33)" stroke="none" stroke-width="1px">-20</text><text x="72.92924107142858" y="0" dx="0em" dy="0.95em" style="text-anchor: middle; visibility: inherit; font-family: Roboto, sans-serif; font-size: 12px; font-weight: 200;" fill="rgb(33, 33, 33)" stroke="none" stroke-width="1px">0</text><text x="145.85848214285716" y="0" dx="0em" dy="0.95em" style="text-anchor: middle; visibility: inherit; font-family: Roboto, sans-serif; font-size: 12px; font-weight: 200;" fill="rgb(33, 33, 33)" stroke="none" stroke-width="1px">20</text><text x="218.78772321428573" y="0" dx="0em" dy="0.95em" style="text-anchor: middle; visibility: inherit; font-family: Roboto, sans-serif; font-size: 12px; font-weight: 200;" fill="rgb(33, 33, 33)" stroke="none" stroke-width="1px">40</text><text x="291.7169642857143" y="0" dx="0em" dy="0.95em" style="text-anchor: middle; visibility: inherit; font-family: Roboto, sans-serif; font-size: 12px; font-weight: 200;" fill="rgb(33, 33, 33)" stroke="none" stroke-width="1px">60</text><text x="364.6462053571429" y="0" dx="0em" dy="0.95em" style="text-anchor: middle; visibility: inherit; font-family: Roboto, sans-serif; font-size: 12px; font-weight: 200;" fill="rgb(33, 33, 33)" stroke="none" stroke-width="1px">80</text><text x="437.57544642857147" y="0" dx="0em" dy="0.95em" style="text-anchor: middle; visibility: inherit; font-family: Roboto, sans-serif; font-size: 12px; font-weight: 200;" fill="rgb(33, 33, 33)" stroke="none" stroke-width="1px">100</text><text x="510.50468750000005" y="0" dx="0em" dy="0.95em" style="text-anchor: middle; visibility: inherit; font-family: Roboto, sans-serif; font-size: 12px; font-weight: 200;" fill="rgb(33, 33, 33)" stroke="none" stroke-width="1px">120</text><text x="583.4339285714286" y="0" dx="0em" dy="0.95em" style="text-anchor: middle; visibility: inherit; font-family: Roboto, sans-serif; font-size: 12px; font-weight: 200;" fill="rgb(33, 33, 33)" stroke="none" stroke-width="1px">140</text><text x="656.3631696428572" y="0" dx="0em" dy="0.95em" style="text-anchor: middle; visibility: inherit; font-family: Roboto, sans-serif; font-size: 12px; font-weight: 200;" fill="rgb(33, 33, 33)" stroke="none" stroke-width="1px">160</text><text x="729.2924107142858" y="0" dx="0em" dy="0.95em" style="text-anchor: middle; visibility: inherit; font-family: Roboto, sans-serif; font-size: 12px; font-weight: 200;" fill="rgb(33, 33, 33)" stroke="none" stroke-width="1px">180</text><text x="802.2216517857144" y="0" dx="0em" dy="0.95em" style="text-anchor: middle; visibility: inherit; font-family: Roboto, sans-serif; font-size: 12px; font-weight: 200;" fill="rgb(33, 33, 33)" stroke="none" stroke-width="1px">200</text><text x="875.1508928571429" y="0" dx="0em" dy="0.95em" style="text-anchor: middle; visibility: inherit; font-family: Roboto, sans-serif; font-size: 12px; font-weight: 200;" fill="rgb(33, 33, 33)" stroke="none" stroke-width="1px">220</text><text x="948.0801339285715" y="0" dx="0em" dy="0.95em" style="text-anchor: middle; visibility: inherit; font-family: Roboto, sans-serif; font-size: 12px; font-weight: 200;" fill="rgb(33, 33, 33)" stroke="none" stroke-width="1px">240</text><text x="1021.0093750000001" y="0" dx="0em" dy="0.95em" style="text-anchor: middle; visibility: hidden; font-family: Roboto, sans-serif; font-size: 12px; font-weight: 200;" fill="rgb(33, 33, 33)" stroke="none" stroke-width="1px">260</text></g><line x1="0" y1="0" x2="1021.0093750000001" y2="0" fill="rgb(0, 0, 0)" stroke="rgb(204, 204, 204)" stroke-width="1px"></line></g></g></g></g></svg>