<svg viewBox="0 0 1063.4000244140625 400" xmlns="http://www.w3.org/2000/svg"><g><g><g><g><g><line x1="74.78125" y1="376" x2="69.78125" y2="376" style="visibility: inherit;" fill="rgb(0, 0, 0)" stroke="rgb(204, 204, 204)" stroke-width="1px"></line><line x1="74.78125" y1="344.66666666666663" x2="69.78125" y2="344.66666666666663" style="visibility: inherit;" fill="rgb(0, 0, 0)" stroke="rgb(204, 204, 204)" stroke-width="1px"></line><line x1="74.78125" y1="313.33333333333337" x2="69.78125" y2="313.33333333333337" style="visibility: inherit;" fill="rgb(0, 0, 0)" stroke="rgb(204, 204, 204)" stroke-width="1px"></line><line x1="74.78125" y1="282" x2="69.78125" y2="282" style="visibility: inherit;" fill="rgb(0, 0, 0)" stroke="rgb(204, 204, 204)" stroke-width="1px"></line><line x1="74.78125" y1="250.66666666666669" x2="69.78125" y2="250.66666666666669" style="visibility: inherit;" fill="rgb(0, 0, 0)" stroke="rgb(204, 204, 204)" stroke-width="1px"></line><line x1="74.78125" y1="219.33333333333334" x2="69.78125" y2="219.33333333333334" style="visibility: inherit;" fill="rgb(0, 0, 0)" stroke="rgb(204, 204, 204)" stroke-width="1px"></line><line x1="74.78125" y1="188" x2="69.78125" y2="188" style="visibility: inherit;" fill="rgb(0, 0, 0)" stroke="rgb(204, 204, 204)" stroke-width="1px"></line><line x1="74.78125" y1="156.66666666666669" x2="69.78125" y2="156.66666666666669" style="visibility: inherit;" fill="rgb(0, 0, 0)" stroke="rgb(204, 204, 204)" stroke-width="1px"></line><line x1="74.78125" y1="125.33333333333334" x2="69.78125" y2="125.33333333333334" style="visibility: inherit;" fill="rgb(0, 0, 0)" stroke="rgb(204, 204, 204)" stroke-width="1px"></line><line x1="74.78125" y1="94" x2="69.78125" y2="94" style="visibility: inherit;" fill="rgb(0, 0, 0)" stroke="rgb(204, 204, 204)" stroke-width="1px"></line><line x1="74.78125" y1="62.66666666666669" x2="69.78125" y2="62.66666666666669" style="visibility: inherit;" fill="rgb(0, 0, 0)" stroke="rgb(204, 204, 204)" stroke-width="1px"></line><line x1="74.78125" y1="31.333333333333346" x2="69.78125" y2="31.333333333333346" style="visibility: inherit;" fill="rgb(0, 0, 0)" stroke="rgb(204, 204, 204)" stroke-width="1px"></line><line x1="74.78125" y1="0" x2="69.78125" y2="0" style="visibility: inherit;" fill="rgb(0, 0, 0)" stroke="rgb(204, 204, 204)" stroke-width="1px"></line></g><g transform="translate(64.78125, 0)"><text x="0" y="376" dx="0em" dy="0.3em" style="text-anchor: end; visibility: hidden; font-family: Roboto, sans-serif; font-size: 12px; font-weight: 200;" fill="rgb(33, 33, 33)" stroke="none" stroke-width="1px">-1e-4</text><text x="0" y="344.66666666666663" dx="0em" dy="0.3em" style="text-anchor: end; visibility: inherit; font-family: Roboto, sans-serif; font-size: 12px; font-weight: 200;" fill="rgb(33, 33, 33)" stroke="none" stroke-width="1px">0</text><text x="0" y="313.33333333333337" dx="0em" dy="0.3em" style="text-anchor: end; visibility: inherit; font-family: Roboto, sans-serif; font-size: 12px; font-weight: 200;" fill="rgb(33, 33, 33)" stroke="none" stroke-width="1px">1e-4</text><text x="0" y="282" dx="0em" dy="0.3em" style="text-anchor: end; visibility: inherit; font-family: Roboto, sans-serif; font-size: 12px; font-weight: 200;" fill="rgb(33, 33, 33)" stroke="none" stroke-width="1px">2e-4</text><text x="0" y="250.66666666666669" dx="0em" dy="0.3em" style="text-anchor: end; visibility: inherit; font-family: Roboto, sans-serif; font-size: 12px; font-weight: 200;" fill="rgb(33, 33, 33)" stroke="none" stroke-width="1px">3e-4</text><text x="0" y="219.33333333333334" dx="0em" dy="0.3em" style="text-anchor: end; visibility: inherit; font-family: Roboto, sans-serif; font-size: 12px; font-weight: 200;" fill="rgb(33, 33, 33)" stroke="none" stroke-width="1px">4e-4</text><text x="0" y="188" dx="0em" dy="0.3em" style="text-anchor: end; visibility: inherit; font-family: Roboto, sans-serif; font-size: 12px; font-weight: 200;" fill="rgb(33, 33, 33)" stroke="none" stroke-width="1px">5e-4</text><text x="0" y="156.66666666666669" dx="0em" dy="0.3em" style="text-anchor: end; visibility: inherit; font-family: Roboto, sans-serif; font-size: 12px; font-weight: 200;" fill="rgb(33, 33, 33)" stroke="none" stroke-width="1px">6e-4</text><text x="0" y="125.33333333333334" dx="0em" dy="0.3em" style="text-anchor: end; visibility: inherit; font-family: Roboto, sans-serif; font-size: 12px; font-weight: 200;" fill="rgb(33, 33, 33)" stroke="none" stroke-width="1px">7e-4</text><text x="0" y="94" dx="0em" dy="0.3em" style="text-anchor: end; visibility: inherit; font-family: Roboto, sans-serif; font-size: 12px; font-weight: 200;" fill="rgb(33, 33, 33)" stroke="none" stroke-width="1px">8e-4</text><text x="0" y="62.66666666666669" dx="0em" dy="0.3em" style="text-anchor: end; visibility: inherit; font-family: Roboto, sans-serif; font-size: 12px; font-weight: 200;" fill="rgb(33, 33, 33)" stroke="none" stroke-width="1px">9e-4</text><text x="0" y="31.333333333333346" dx="0em" dy="0.3em" style="text-anchor: end; visibility: inherit; font-family: Roboto, sans-serif; font-size: 12px; font-weight: 200;" fill="rgb(33, 33, 33)" stroke="none" stroke-width="1px">1e-3</text><text x="0" y="0" dx="0em" dy="0.3em" style="text-anchor: end; visibility: hidden; font-family: Roboto, sans-serif; font-size: 12px; font-weight: 200;" fill="rgb(33, 33, 33)" stroke="none" stroke-width="1px">1.1e-3</text></g><line x1="74.78125" y1="0" x2="74.78125" y2="376" fill="rgb(0, 0, 0)" stroke="rgb(204, 204, 204)" stroke-width="1px"></line></g></g><g transform="translate(74, 0)" clip-path="url(#clip_0)"><clipPath id="clip_0"><rect width="988" height="376"></rect></clipPath><g><g><g><line x1="0" y1="0" x2="0" y2="376" fill="rgb(0, 0, 0)" stroke="rgb(66, 66, 66)" stroke-width="1px" opacity="0.25"></line><line x1="70.61562500000001" y1="0" x2="70.61562500000001" y2="376" fill="rgb(0, 0, 0)" stroke="rgb(66, 66, 66)" stroke-width="1px" opacity="0.25"></line><line x1="141.23125000000002" y1="0" x2="141.23125000000002" y2="376" fill="rgb(0, 0, 0)" stroke="rgb(66, 66, 66)" stroke-width="1px" opacity="0.25"></line><line x1="211.846875" y1="0" x2="211.846875" y2="376" fill="rgb(0, 0, 0)" stroke="rgb(66, 66, 66)" stroke-width="1px" opacity="0.25"></line><line x1="282.46250000000003" y1="0" x2="282.46250000000003" y2="376" fill="rgb(0, 0, 0)" stroke="rgb(66, 66, 66)" stroke-width="1px" opacity="0.25"></line><line x1="353.07812500000006" y1="0" x2="353.07812500000006" y2="376" fill="rgb(0, 0, 0)" stroke="rgb(66, 66, 66)" stroke-width="1px" opacity="0.25"></line><line x1="423.69375" y1="0" x2="423.69375" y2="376" fill="rgb(0, 0, 0)" stroke="rgb(66, 66, 66)" stroke-width="1px" opacity="0.25"></line><line x1="494.30937500000005" y1="0" x2="494.30937500000005" y2="376" fill="rgb(0, 0, 0)" stroke="rgb(66, 66, 66)" stroke-width="1px" opacity="0.25"></line><line x1="564.9250000000001" y1="0" x2="564.9250000000001" y2="376" fill="rgb(0, 0, 0)" stroke="rgb(66, 66, 66)" stroke-width="1px" opacity="0.25"></line><line x1="635.5406250000001" y1="0" x2="635.5406250000001" y2="376" fill="rgb(0, 0, 0)" stroke="rgb(66, 66, 66)" stroke-width="1px" opacity="0.25"></line><line x1="706.1562500000001" y1="0" x2="706.1562500000001" y2="376" fill="rgb(0, 0, 0)" stroke="rgb(66, 66, 66)" stroke-width="1px" opacity="0.25"></line><line x1="776.771875" y1="0" x2="776.771875" y2="376" fill="rgb(0, 0, 0)" stroke="rgb(66, 66, 66)" stroke-width="1px" opacity="0.25"></line><line x1="847.3875" y1="0" x2="847.3875" y2="376" fill="rgb(0, 0, 0)" stroke="rgb(66, 66, 66)" stroke-width="1px" opacity="0.25"></line><line x1="918.0031250000001" y1="0" x2="918.0031250000001" y2="376" fill="rgb(0, 0, 0)" stroke="rgb(66, 66, 66)" stroke-width="1px" opacity="0.25"></line><line x1="988.6187500000001" y1="0" x2="988.6187500000001" y2="376" fill="rgb(0, 0, 0)" stroke="rgb(66, 66, 66)" stroke-width="1px" opacity="0.25"></line></g><g><line x1="0" y1="376" x2="988.6187500000001" y2="376" fill="rgb(0, 0, 0)" stroke="rgb(66, 66, 66)" stroke-width="1px" opacity="0.25"></line><line x1="0" y1="344.66666666666663" x2="988.6187500000001" y2="344.66666666666663" fill="rgb(0, 0, 0)" stroke="rgb(66, 66, 66)" stroke-width="1px" opacity="0.25"></line><line x1="0" y1="313.33333333333337" x2="988.6187500000001" y2="313.33333333333337" fill="rgb(0, 0, 0)" stroke="rgb(66, 66, 66)" stroke-width="1px" opacity="0.25"></line><line x1="0" y1="282" x2="988.6187500000001" y2="282" fill="rgb(0, 0, 0)" stroke="rgb(66, 66, 66)" stroke-width="1px" opacity="0.25"></line><line x1="0" y1="250.66666666666669" x2="988.6187500000001" y2="250.66666666666669" fill="rgb(0, 0, 0)" stroke="rgb(66, 66, 66)" stroke-width="1px" opacity="0.25"></line><line x1="0" y1="219.33333333333334" x2="988.6187500000001" y2="219.33333333333334" fill="rgb(0, 0, 0)" stroke="rgb(66, 66, 66)" stroke-width="1px" opacity="0.25"></line><line x1="0" y1="188" x2="988.6187500000001" y2="188" fill="rgb(0, 0, 0)" stroke="rgb(66, 66, 66)" stroke-width="1px" opacity="0.25"></line><line x1="0" y1="156.66666666666669" x2="988.6187500000001" y2="156.66666666666669" fill="rgb(0, 0, 0)" stroke="rgb(66, 66, 66)" stroke-width="1px" opacity="0.25"></line><line x1="0" y1="125.33333333333334" x2="988.6187500000001" y2="125.33333333333334" fill="rgb(0, 0, 0)" stroke="rgb(66, 66, 66)" stroke-width="1px" opacity="0.25"></line><line x1="0" y1="94" x2="988.6187500000001" y2="94" fill="rgb(0, 0, 0)" stroke="rgb(66, 66, 66)" stroke-width="1px" opacity="0.25"></line><line x1="0" y1="62.66666666666669" x2="988.6187500000001" y2="62.66666666666669" fill="rgb(0, 0, 0)" stroke="rgb(66, 66, 66)" stroke-width="1px" opacity="0.25"></line><line x1="0" y1="31.333333333333346" x2="988.6187500000001" y2="31.333333333333346" fill="rgb(0, 0, 0)" stroke="rgb(66, 66, 66)" stroke-width="1px" opacity="0.25"></line><line x1="0" y1="0" x2="988.6187500000001" y2="0" fill="rgb(0, 0, 0)" stroke="rgb(66, 66, 66)" stroke-width="1px" opacity="0.25"></line></g></g></g><g><g><line x1="0" y1="344.66666666666663" x2="988.6187500000001" y2="344.66666666666663" fill="rgb(0, 0, 0)" stroke="rgb(153, 153, 153)" stroke-width="1.5px"></line></g></g><g><g><line x1="70.61562500000001" y1="0" x2="70.61562500000001" y2="376" fill="rgb(0, 0, 0)" stroke="rgb(153, 153, 153)" stroke-width="1.5px"></line></g></g><g><g><g><g><g><path stroke="rgb(255, 112, 67)" stroke-width="2px" d="M70.61562500000001,31.333318450798604L74.14640625,31.333318450798604L77.6771875,31.333318450798604L81.20796875,31.33331845079869L84.73875000000001,31.33331845079869L88.26953125000001,31.333318450798604L91.80031250000002,31.333318450798604L95.33109375000001,31.333318450798604L98.86187500000001,31.333318450798604L102.39265625000002,31.333318450798604L105.9234375,31.333318450798604L109.45421875000001,31.333318450798522L112.98500000000001,31.333318450798522L116.51578125,31.333318450798604L120.04656250000001,31.333318450798604L123.57734375000001,31.333318450798522L127.108125,31.333318450798522L130.63890625000002,31.333318450798604L134.1696875,31.33331845079869L137.70046875000003,31.333318450798604L141.23125000000002,31.333318450798604L144.76203125,31.333318450798604L148.2928125,31.333318450798604L151.82359375000001,31.333318450798604L155.354375,31.333318450798604L158.88515625000002,31.333318450798604L162.4159375,31.33331845079869L165.94671875,31.333318450798604L169.47750000000002,31.333318450798604L173.00828125,31.33331845079869L176.53906250000003,31.333318450798604L180.06984375000002,31.33331845079869L183.60062500000004,31.333318450798604L187.13140625,31.33331845079869L190.66218750000002,31.33331845079869L194.19296875,31.33331845079869L197.72375000000002,31.33331845079869L201.25453125,31.33331845079869L204.78531250000003,31.33331845079873L208.31609375000002,31.33331845079869L211.846875,31.33331845079869L215.37765625000003,31.33331845079869L218.90843750000002,31.33331845079869L222.43921875000004,31.33331845079869L225.97000000000003,31.33331845079869L229.50078125000002,31.33331845079869L233.0315625,31.33331845079869L236.56234375000003,31.33331845079869L240.09312500000001,31.333318450798604L243.62390625000003,31.333318450798604L247.15468750000002,31.33331845079869L250.68546875,31.33331845079869L254.21625,31.333318450798604L257.74703125,31.33331845079869L261.27781250000004,31.33331845079873L264.80859375,31.33331845079869L268.339375,31.33331845079869L271.87015625000004,31.333318450798604L275.40093750000005,31.333318450798604L278.93171875,31.33331845079869L282.46250000000003,31.33331845079869L285.99328125000005,31.33331845079869L289.5240625,31.33331845079869L293.05484375000003,31.33331845079869L296.585625,31.33331845079869L300.11640625,31.333318450798604L303.64718750000003,31.333318450798604L307.17796875000005,31.333318450798604L310.70875,31.333318450798604L314.23953125,31.333318450798604L317.77031250000005,31.33331845079869L321.30109375000006,31.33331845079869L324.831875,31.33331845079869L328.36265625000004,31.33331845079873L331.8934375,31.33331845079873L335.42421875,31.33331845079873L338.95500000000004,31.33331845079873L342.48578125,31.33331845079873L346.0165625,31.33331845079873L349.54734375000004,31.33331845079873L353.07812500000006,31.33331845079873L356.60890625,31.33331845079873L360.13968750000004,31.33331845079873L363.67046875000005,31.33331845079873L367.2012500000001,31.33331845079873L370.73203125000003,31.33331845079873L374.2628125,31.33331845079873L377.79359375,31.33331845079873L381.32437500000003,31.33331845079873L384.85515625000005,31.33331845079873L388.3859375,31.33331845079873L391.91671875000003,31.33331845079873L395.44750000000005,31.33331845079873L398.97828125000007,31.33331845079873L402.5090625,31.33331845079873L406.03984375000005,31.33331845079873L409.57062500000006,31.33331845079873L413.10140625,31.33331845079873L416.63218750000004,31.33331845079873L420.16296875,31.33331845079873L423.69375,31.33331845079873L427.22453125000004,31.33331845079873L430.75531250000006,31.33331845079873L434.28609375,31.33331845079873L437.81687500000004,31.33331845079873L441.34765625000006,31.33331845079873L444.8784375000001,31.33331845079873L448.40921875000004,31.33331845079873L451.94000000000005,31.33331845079873L455.47078125,31.33331845079873L459.00156250000003,31.33331845079873L462.53234375000005,31.33331845079873L466.063125,31.33331845079873L469.59390625000003,31.33331845079873L473.12468750000005,31.33331845079873L476.65546875000007,31.33331845079873L480.18625000000003,31.33331845079873L483.71703125000005,31.33331845079873L487.24781250000007,31.33331845079873L490.7785937500001,31.33331845079873L494.30937500000005,31.33331845079873L497.84015625,31.33331845079873L501.3709375,31.33331845079873L504.90171875,31.33331845079873L508.4325,31.33331845079873L511.9632812500001,31.33331845079873L515.4940625,31.33331845079873L519.0248437500001,31.33331845079873L522.5556250000001,31.33331845079873L526.0864062500001,31.33331845079873L529.6171875,31.33331845079873L533.14796875,31.33331845079873L536.67875,31.33331845079873L540.2095312499999,31.33331845079873L543.7403125000001,144.13332472043123L547.2710937500001,211.81332848221072L550.8018750000001,252.42133073927843L554.33265625,276.78613209351903L557.8634375,291.4050129060634L561.39421875,300.17634139359L564.9250000000001,305.43913848610595L568.45578125,308.59681674161556L571.9865625000001,310.4914236949213L575.5173437500001,311.62818786690474L579.048125,312.31024637009483L582.57890625,312.71948147200885L586.1096875000001,312.9650225331573L589.6404687500001,313.1123471698463L593.17125,313.20074195185975L596.70203125,313.25377882106784L600.2328125,313.2856009425927L603.7635937500002,313.30469421550754L607.2943750000001,313.3161501792565L610.8251562500001,313.3230237575059L614.3559375000001,313.3271479044555L617.88671875,313.32962239262525L621.4175,313.33110708552715L624.94828125,313.3319979012682L628.4790625,313.3325323907129L632.00984375,313.33285308437974L635.5406250000001,313.3330455005798L639.0714062500001,313.3331609502998L642.6021875000001,313.3332302201319L646.13296875,313.3332717820311L649.66375,313.3332967191706L653.1945312500001,313.33331168145435L656.7253125000001,313.3333206588246L660.25609375,313.33332604524674L663.786875,313.33332927709995L667.3176562500001,313.33333121621195L670.8484375,313.3333323796791L674.3792187500001,313.3333330777595L677.9100000000001,313.3333334966076L681.4407812500001,313.3333337479165L684.9715625,313.3333338987019L688.50234375,313.33333398917307L692.033125,313.3333340434558L695.5639062500002,313.33333407602544L699.0946875000001,313.33333409556724L702.6254687500001,313.33333410729233L706.1562500000001,313.33333411432733L709.68703125,313.33333411854835L713.2178125,313.333334121081L716.74859375,313.33333412260055L720.2793750000001,324.6133338385555L723.81015625,331.3813336681285L727.3409375000001,335.4421335658723L730.8717187500001,337.8786135045186L734.4025000000001,339.34050146770636L737.93328125,340.21763424561897L741.4640625000001,340.7439139123666L744.9948437500001,341.05968171241517L748.525625,341.2491423924443L752.05640625,341.36281880046175L755.5871875,341.43102464527226L759.1179687500002,341.4719481521586L762.6487500000001,341.49650225629034L766.1795312500001,341.5112347187694L769.7103125000001,341.52007419625687L773.2410937500001,341.5253778827493L776.771875,341.5285600946448L780.30265625,341.530469421782L783.8334375000001,341.53161501806443L787.36421875,341.53230237583386L790.8950000000001,341.5327147904955L794.4257812500001,341.5329622392925L797.9565625000001,341.5331107085707L801.48734375,341.5331997901376L805.018125,341.5332532390778L808.5489062500001,341.53328530844186L812.0796875000001,341.53330455006034L815.61046875,341.53331609503135L819.1412500000001,341.53332302201403L822.6720312500001,341.5333271782036L826.2028125,341.53332967191733L829.7335937500001,341.53333116814565L833.2643750000001,341.5333320658826L836.7951562500001,341.53333260452473L840.3259375,341.53333292771003L843.85671875,341.5333331216212L847.3875,341.5333332379679L850.9182812500002,341.53333330777593L854.4490625000001,341.5333333496608L857.9798437500001,341.53333337479165L861.5106250000001,341.53333338987017L865.0414062500001,341.5333333989173L868.5721875,341.53333340434557L872.1029687500001,341.5333334076026L875.6337500000001,341.53333340955675L879.16453125,341.5333334107292L882.6953125000001,341.53333341143275L886.2260937500001,341.53333341185487L889.7568750000002,341.5333334121081L893.28765625,341.53333341226005L896.8184375000001,341.5333334123512L900.3492187500001,341.5333334124059L903.8800000000001,341.53333341243876L907.41078125,341.53333341245843L910.9415625,341.5333334124703L914.4723437500002,341.53333341247736" style="fill: none;" fill="none"></path></g></g></g></g><g opacity="0.2"><g><g><g><path stroke="rgb(255, 112, 67)" stroke-width="2px" d="M70.61562500000001,31.333318450798604L74.14640625,31.333318450798604L77.6771875,31.333318450798604L81.20796875,31.333318450798604L84.73875000000001,31.333318450798604L88.26953125000001,31.333318450798604L91.80031250000002,31.333318450798604L95.33109375000001,31.333318450798604L98.86187500000001,31.333318450798604L102.39265625000002,31.333318450798604L105.9234375,31.333318450798604L109.45421875000001,31.333318450798604L112.98500000000001,31.333318450798604L116.51578125,31.333318450798604L120.04656250000001,31.333318450798604L123.57734375000001,31.333318450798604L127.108125,31.333318450798604L130.63890625000002,31.333318450798604L134.1696875,31.333318450798604L137.70046875000003,31.333318450798604L141.23125000000002,31.333318450798604L144.76203125,31.333318450798604L148.2928125,31.333318450798604L151.82359375000001,31.333318450798604L155.354375,31.333318450798604L158.88515625000002,31.333318450798604L162.4159375,31.333318450798604L165.94671875,31.333318450798604L169.47750000000002,31.333318450798604L173.00828125,31.333318450798604L176.53906250000003,31.333318450798604L180.06984375000002,31.333318450798604L183.60062500000004,31.333318450798604L187.13140625,31.333318450798604L190.66218750000002,31.333318450798604L194.19296875,31.333318450798604L197.72375000000002,31.333318450798604L201.25453125,31.333318450798604L204.78531250000003,31.333318450798604L208.31609375000002,31.333318450798604L211.846875,31.333318450798604L215.37765625000003,31.333318450798604L218.90843750000002,31.333318450798604L222.43921875000004,31.333318450798604L225.97000000000003,31.333318450798604L229.50078125000002,31.333318450798604L233.0315625,31.333318450798604L236.56234375000003,31.333318450798604L240.09312500000001,31.333318450798604L243.62390625000003,31.333318450798604L247.15468750000002,31.333318450798604L250.68546875,31.333318450798604L254.21625,31.333318450798604L257.74703125,31.333318450798604L261.27781250000004,31.333318450798604L264.80859375,31.333318450798604L268.339375,31.333318450798604L271.87015625000004,31.333318450798604L275.40093750000005,31.333318450798604L278.93171875,31.333318450798604L282.46250000000003,31.333318450798604L285.99328125000005,31.333318450798604L289.5240625,31.333318450798604L293.05484375000003,31.333318450798604L296.585625,31.333318450798604L300.11640625,31.333318450798604L303.64718750000003,31.333318450798604L307.17796875000005,31.333318450798604L310.70875,31.333318450798604L314.23953125,31.333318450798604L317.77031250000005,31.333318450798604L321.30109375000006,31.333318450798604L324.831875,31.333318450798604L328.36265625000004,31.333318450798604L331.8934375,31.333318450798604L335.42421875,31.333318450798604L338.95500000000004,31.333318450798604L342.48578125,31.333318450798604L346.0165625,31.333318450798604L349.54734375000004,31.333318450798604L353.07812500000006,31.333318450798604L356.60890625,31.333318450798604L360.13968750000004,31.333318450798604L363.67046875000005,31.333318450798604L367.2012500000001,31.333318450798604L370.73203125000003,31.333318450798604L374.2628125,31.333318450798604L377.79359375,31.333318450798604L381.32437500000003,31.333318450798604L384.85515625000005,31.333318450798604L388.3859375,31.333318450798604L391.91671875000003,31.333318450798604L395.44750000000005,31.333318450798604L398.97828125000007,31.333318450798604L402.5090625,31.333318450798604L406.03984375000005,31.333318450798604L409.57062500000006,31.333318450798604L413.10140625,31.333318450798604L416.63218750000004,31.333318450798604L420.16296875,31.333318450798604L423.69375,31.333318450798604L427.22453125000004,31.333318450798604L430.75531250000006,31.333318450798604L434.28609375,31.333318450798604L437.81687500000004,31.333318450798604L441.34765625000006,31.333318450798604L444.8784375000001,31.333318450798604L448.40921875000004,31.333318450798604L451.94000000000005,31.333318450798604L455.47078125,31.333318450798604L459.00156250000003,31.333318450798604L462.53234375000005,31.333318450798604L466.063125,31.333318450798604L469.59390625000003,31.333318450798604L473.12468750000005,31.333318450798604L476.65546875000007,31.333318450798604L480.18625000000003,31.333318450798604L483.71703125000005,31.333318450798604L487.24781250000007,31.333318450798604L490.7785937500001,31.333318450798604L494.30937500000005,31.333318450798604L497.84015625,31.333318450798604L501.3709375,31.333318450798604L504.90171875,31.333318450798604L508.4325,31.333318450798604L511.9632812500001,31.333318450798604L515.4940625,31.333318450798604L519.0248437500001,31.333318450798604L522.5556250000001,31.333318450798604L526.0864062500001,31.333318450798604L529.6171875,31.333318450798604L533.14796875,31.333318450798604L536.67875,31.333318450798604L540.2095312499999,31.333318450798604L543.7403125000001,313.3333341248799L547.2710937500001,313.3333341248799L550.8018750000001,313.3333341248799L554.33265625,313.3333341248799L557.8634375,313.3333341248799L561.39421875,313.3333341248799L564.9250000000001,313.3333341248799L568.45578125,313.3333341248799L571.9865625000001,313.3333341248799L575.5173437500001,313.3333341248799L579.048125,313.3333341248799L582.57890625,313.3333341248799L586.1096875000001,313.3333341248799L589.6404687500001,313.3333341248799L593.17125,313.3333341248799L596.70203125,313.3333341248799L600.2328125,313.3333341248799L603.7635937500002,313.3333341248799L607.2943750000001,313.3333341248799L610.8251562500001,313.3333341248799L614.3559375000001,313.3333341248799L617.88671875,313.3333341248799L621.4175,313.3333341248799L624.94828125,313.3333341248799L628.4790625,313.3333341248799L632.00984375,313.3333341248799L635.5406250000001,313.3333341248799L639.0714062500001,313.3333341248799L642.6021875000001,313.3333341248799L646.13296875,313.3333341248799L649.66375,313.3333341248799L653.1945312500001,313.3333341248799L656.7253125000001,313.3333341248799L660.25609375,313.3333341248799L663.786875,313.3333341248799L667.3176562500001,313.3333341248799L670.8484375,313.3333341248799L674.3792187500001,313.3333341248799L677.9100000000001,313.3333341248799L681.4407812500001,313.3333341248799L684.9715625,313.3333341248799L688.50234375,313.3333341248799L692.033125,313.3333341248799L695.5639062500002,313.3333341248799L699.0946875000001,313.3333341248799L702.6254687500001,313.3333341248799L706.1562500000001,313.3333341248799L709.68703125,313.3333341248799L713.2178125,313.3333341248799L716.74859375,313.3333341248799L720.2793750000001,341.533333412488L723.81015625,341.533333412488L727.3409375000001,341.533333412488L730.8717187500001,341.533333412488L734.4025000000001,341.533333412488L737.93328125,341.533333412488L741.4640625000001,341.533333412488L744.9948437500001,341.533333412488L748.525625,341.533333412488L752.05640625,341.533333412488L755.5871875,341.533333412488L759.1179687500002,341.533333412488L762.6487500000001,341.533333412488L766.1795312500001,341.533333412488L769.7103125000001,341.533333412488L773.2410937500001,341.533333412488L776.771875,341.533333412488L780.30265625,341.533333412488L783.8334375000001,341.533333412488L787.36421875,341.533333412488L790.8950000000001,341.533333412488L794.4257812500001,341.533333412488L797.9565625000001,341.533333412488L801.48734375,341.533333412488L805.018125,341.533333412488L808.5489062500001,341.533333412488L812.0796875000001,341.533333412488L815.61046875,341.533333412488L819.1412500000001,341.533333412488L822.6720312500001,341.533333412488L826.2028125,341.533333412488L829.7335937500001,341.533333412488L833.2643750000001,341.533333412488L836.7951562500001,341.533333412488L840.3259375,341.533333412488L843.85671875,341.533333412488L847.3875,341.533333412488L850.9182812500002,341.533333412488L854.4490625000001,341.533333412488L857.9798437500001,341.533333412488L861.5106250000001,341.533333412488L865.0414062500001,341.533333412488L868.5721875,341.533333412488L872.1029687500001,341.533333412488L875.6337500000001,341.533333412488L879.16453125,341.533333412488L882.6953125000001,341.533333412488L886.2260937500001,341.533333412488L889.7568750000002,341.533333412488L893.28765625,341.533333412488L896.8184375000001,341.533333412488L900.3492187500001,341.533333412488L903.8800000000001,341.533333412488L907.41078125,341.533333412488L910.9415625,341.533333412488L914.4723437500002,341.533333412488" style="fill: none;" fill="none"></path></g></g></g></g></g></g><g transform="translate(74, 376)" clip-path="url(#clip_1)"><clipPath id="clip_1"><rect width="988" height="24"></rect></clipPath><g><g><line x1="0" y1="0" x2="0" y2="5" style="visibility: inherit;" fill="rgb(0, 0, 0)" stroke="rgb(204, 204, 204)" stroke-width="1px"></line><line x1="70.61562500000001" y1="0" x2="70.61562500000001" y2="5" style="visibility: inherit;" fill="rgb(0, 0, 0)" stroke="rgb(204, 204, 204)" stroke-width="1px"></line><line x1="141.23125000000002" y1="0" x2="141.23125000000002" y2="5" style="visibility: inherit;" fill="rgb(0, 0, 0)" stroke="rgb(204, 204, 204)" stroke-width="1px"></line><line x1="211.846875" y1="0" x2="211.846875" y2="5" style="visibility: inherit;" fill="rgb(0, 0, 0)" stroke="rgb(204, 204, 204)" stroke-width="1px"></line><line x1="282.46250000000003" y1="0" x2="282.46250000000003" y2="5" style="visibility: inherit;" fill="rgb(0, 0, 0)" stroke="rgb(204, 204, 204)" stroke-width="1px"></line><line x1="353.07812500000006" y1="0" x2="353.07812500000006" y2="5" style="visibility: inherit;" fill="rgb(0, 0, 0)" stroke="rgb(204, 204, 204)" stroke-width="1px"></line><line x1="423.69375" y1="0" x2="423.69375" y2="5" style="visibility: inherit;" fill="rgb(0, 0, 0)" stroke="rgb(204, 204, 204)" stroke-width="1px"></line><line x1="494.30937500000005" y1="0" x2="494.30937500000005" y2="5" style="visibility: inherit;" fill="rgb(0, 0, 0)" stroke="rgb(204, 204, 204)" stroke-width="1px"></line><line x1="564.9250000000001" y1="0" x2="564.9250000000001" y2="5" style="visibility: inherit;" fill="rgb(0, 0, 0)" stroke="rgb(204, 204, 204)" stroke-width="1px"></line><line x1="635.5406250000001" y1="0" x2="635.5406250000001" y2="5" style="visibility: inherit;" fill="rgb(0, 0, 0)" stroke="rgb(204, 204, 204)" stroke-width="1px"></line><line x1="706.1562500000001" y1="0" x2="706.1562500000001" y2="5" style="visibility: inherit;" fill="rgb(0, 0, 0)" stroke="rgb(204, 204, 204)" stroke-width="1px"></line><line x1="776.771875" y1="0" x2="776.771875" y2="5" style="visibility: inherit;" fill="rgb(0, 0, 0)" stroke="rgb(204, 204, 204)" stroke-width="1px"></line><line x1="847.3875" y1="0" x2="847.3875" y2="5" style="visibility: inherit;" fill="rgb(0, 0, 0)" stroke="rgb(204, 204, 204)" stroke-width="1px"></line><line x1="918.0031250000001" y1="0" x2="918.0031250000001" y2="5" style="visibility: inherit;" fill="rgb(0, 0, 0)" stroke="rgb(204, 204, 204)" stroke-width="1px"></line><line x1="988.6187500000001" y1="0" x2="988.6187500000001" y2="5" style="visibility: inherit;" fill="rgb(0, 0, 0)" stroke="rgb(204, 204, 204)" stroke-width="1px"></line></g><g transform="translate(0, 8)"><text x="0" y="0" dx="0em" dy="0.95em" style="text-anchor: middle; visibility: hidden; font-family: Roboto, sans-serif; font-size: 12px; font-weight: 200;" fill="rgb(33, 33, 33)" stroke="none" stroke-width="1px">-20</text><text x="70.61562500000001" y="0" dx="0em" dy="0.95em" style="text-anchor: middle; visibility: inherit; font-family: Roboto, sans-serif; font-size: 12px; font-weight: 200;" fill="rgb(33, 33, 33)" stroke="none" stroke-width="1px">0</text><text x="141.23125000000002" y="0" dx="0em" dy="0.95em" style="text-anchor: middle; visibility: inherit; font-family: Roboto, sans-serif; font-size: 12px; font-weight: 200;" fill="rgb(33, 33, 33)" stroke="none" stroke-width="1px">20</text><text x="211.846875" y="0" dx="0em" dy="0.95em" style="text-anchor: middle; visibility: inherit; font-family: Roboto, sans-serif; font-size: 12px; font-weight: 200;" fill="rgb(33, 33, 33)" stroke="none" stroke-width="1px">40</text><text x="282.46250000000003" y="0" dx="0em" dy="0.95em" style="text-anchor: middle; visibility: inherit; font-family: Roboto, sans-serif; font-size: 12px; font-weight: 200;" fill="rgb(33, 33, 33)" stroke="none" stroke-width="1px">60</text><text x="353.07812500000006" y="0" dx="0em" dy="0.95em" style="text-anchor: middle; visibility: inherit; font-family: Roboto, sans-serif; font-size: 12px; font-weight: 200;" fill="rgb(33, 33, 33)" stroke="none" stroke-width="1px">80</text><text x="423.69375" y="0" dx="0em" dy="0.95em" style="text-anchor: middle; visibility: inherit; font-family: Roboto, sans-serif; font-size: 12px; font-weight: 200;" fill="rgb(33, 33, 33)" stroke="none" stroke-width="1px">100</text><text x="494.30937500000005" y="0" dx="0em" dy="0.95em" style="text-anchor: middle; visibility: inherit; font-family: Roboto, sans-serif; font-size: 12px; font-weight: 200;" fill="rgb(33, 33, 33)" stroke="none" stroke-width="1px">120</text><text x="564.9250000000001" y="0" dx="0em" dy="0.95em" style="text-anchor: middle; visibility: inherit; font-family: Roboto, sans-serif; font-size: 12px; font-weight: 200;" fill="rgb(33, 33, 33)" stroke="none" stroke-width="1px">140</text><text x="635.5406250000001" y="0" dx="0em" dy="0.95em" style="text-anchor: middle; visibility: inherit; font-family: Roboto, sans-serif; font-size: 12px; font-weight: 200;" fill="rgb(33, 33, 33)" stroke="none" stroke-width="1px">160</text><text x="706.1562500000001" y="0" dx="0em" dy="0.95em" style="text-anchor: middle; visibility: inherit; font-family: Roboto, sans-serif; font-size: 12px; font-weight: 200;" fill="rgb(33, 33, 33)" stroke="none" stroke-width="1px">180</text><text x="776.771875" y="0" dx="0em" dy="0.95em" style="text-anchor: middle; visibility: inherit; font-family: Roboto, sans-serif; font-size: 12px; font-weight: 200;" fill="rgb(33, 33, 33)" stroke="none" stroke-width="1px">200</text><text x="847.3875" y="0" dx="0em" dy="0.95em" style="text-anchor: middle; visibility: inherit; font-family: Roboto, sans-serif; font-size: 12px; font-weight: 200;" fill="rgb(33, 33, 33)" stroke="none" stroke-width="1px">220</text><text x="918.0031250000001" y="0" dx="0em" dy="0.95em" style="text-anchor: middle; visibility: inherit; font-family: Roboto, sans-serif; font-size: 12px; font-weight: 200;" fill="rgb(33, 33, 33)" stroke="none" stroke-width="1px">240</text><text x="988.6187500000001" y="0" dx="0em" dy="0.95em" style="text-anchor: middle; visibility: hidden; font-family: Roboto, sans-serif; font-size: 12px; font-weight: 200;" fill="rgb(33, 33, 33)" stroke="none" stroke-width="1px">260</text></g><line x1="0" y1="0" x2="988.6187500000001" y2="0" fill="rgb(0, 0, 0)" stroke="rgb(204, 204, 204)" stroke-width="1px"></line></g></g></g></g></svg>