<svg viewBox="0 0 1063.4000244140625 400" xmlns="http://www.w3.org/2000/svg"><g><g><g><g><g><line x1="61.953125" y1="377" x2="56.953125" y2="377" style="visibility: inherit;" fill="rgb(0, 0, 0)" stroke="rgb(204, 204, 204)" stroke-width="1px"></line><line x1="61.953125" y1="342.7272727272727" x2="56.953125" y2="342.7272727272727" style="visibility: inherit;" fill="rgb(0, 0, 0)" stroke="rgb(204, 204, 204)" stroke-width="1px"></line><line x1="61.953125" y1="308.45454545454544" x2="56.953125" y2="308.45454545454544" style="visibility: inherit;" fill="rgb(0, 0, 0)" stroke="rgb(204, 204, 204)" stroke-width="1px"></line><line x1="61.953125" y1="274.1818181818182" x2="56.953125" y2="274.1818181818182" style="visibility: inherit;" fill="rgb(0, 0, 0)" stroke="rgb(204, 204, 204)" stroke-width="1px"></line><line x1="61.953125" y1="239.9090909090909" x2="56.953125" y2="239.9090909090909" style="visibility: inherit;" fill="rgb(0, 0, 0)" stroke="rgb(204, 204, 204)" stroke-width="1px"></line><line x1="61.953125" y1="205.63636363636363" x2="56.953125" y2="205.63636363636363" style="visibility: inherit;" fill="rgb(0, 0, 0)" stroke="rgb(204, 204, 204)" stroke-width="1px"></line><line x1="61.953125" y1="171.36363636363637" x2="56.953125" y2="171.36363636363637" style="visibility: inherit;" fill="rgb(0, 0, 0)" stroke="rgb(204, 204, 204)" stroke-width="1px"></line><line x1="61.953125" y1="137.09090909090915" x2="56.953125" y2="137.09090909090915" style="visibility: inherit;" fill="rgb(0, 0, 0)" stroke="rgb(204, 204, 204)" stroke-width="1px"></line><line x1="61.953125" y1="102.81818181818186" x2="56.953125" y2="102.81818181818186" style="visibility: inherit;" fill="rgb(0, 0, 0)" stroke="rgb(204, 204, 204)" stroke-width="1px"></line><line x1="61.953125" y1="68.54545454545458" x2="56.953125" y2="68.54545454545458" style="visibility: inherit;" fill="rgb(0, 0, 0)" stroke="rgb(204, 204, 204)" stroke-width="1px"></line><line x1="61.953125" y1="34.27272727272729" x2="56.953125" y2="34.27272727272729" style="visibility: inherit;" fill="rgb(0, 0, 0)" stroke="rgb(204, 204, 204)" stroke-width="1px"></line><line x1="61.953125" y1="0" x2="56.953125" y2="0" style="visibility: inherit;" fill="rgb(0, 0, 0)" stroke="rgb(204, 204, 204)" stroke-width="1px"></line></g><g transform="translate(51.953125, 0)"><text x="0" y="377" dx="0em" dy="0.3em" style="text-anchor: end; visibility: hidden; font-family: Roboto, sans-serif; font-size: 12px; font-weight: 200;" fill="rgb(33, 33, 33)" stroke="none" stroke-width="1px">-0.05</text><text x="0" y="342.7272727272727" dx="0em" dy="0.3em" style="text-anchor: end; visibility: inherit; font-family: Roboto, sans-serif; font-size: 12px; font-weight: 200;" fill="rgb(33, 33, 33)" stroke="none" stroke-width="1px">0</text><text x="0" y="308.45454545454544" dx="0em" dy="0.3em" style="text-anchor: end; visibility: inherit; font-family: Roboto, sans-serif; font-size: 12px; font-weight: 200;" fill="rgb(33, 33, 33)" stroke="none" stroke-width="1px">0.05</text><text x="0" y="274.1818181818182" dx="0em" dy="0.3em" style="text-anchor: end; visibility: inherit; font-family: Roboto, sans-serif; font-size: 12px; font-weight: 200;" fill="rgb(33, 33, 33)" stroke="none" stroke-width="1px">0.1</text><text x="0" y="239.9090909090909" dx="0em" dy="0.3em" style="text-anchor: end; visibility: inherit; font-family: Roboto, sans-serif; font-size: 12px; font-weight: 200;" fill="rgb(33, 33, 33)" stroke="none" stroke-width="1px">0.15</text><text x="0" y="205.63636363636363" dx="0em" dy="0.3em" style="text-anchor: end; visibility: inherit; font-family: Roboto, sans-serif; font-size: 12px; font-weight: 200;" fill="rgb(33, 33, 33)" stroke="none" stroke-width="1px">0.2</text><text x="0" y="171.36363636363637" dx="0em" dy="0.3em" style="text-anchor: end; visibility: inherit; font-family: Roboto, sans-serif; font-size: 12px; font-weight: 200;" fill="rgb(33, 33, 33)" stroke="none" stroke-width="1px">0.25</text><text x="0" y="137.09090909090915" dx="0em" dy="0.3em" style="text-anchor: end; visibility: inherit; font-family: Roboto, sans-serif; font-size: 12px; font-weight: 200;" fill="rgb(33, 33, 33)" stroke="none" stroke-width="1px">0.3</text><text x="0" y="102.81818181818186" dx="0em" dy="0.3em" style="text-anchor: end; visibility: inherit; font-family: Roboto, sans-serif; font-size: 12px; font-weight: 200;" fill="rgb(33, 33, 33)" stroke="none" stroke-width="1px">0.35</text><text x="0" y="68.54545454545458" dx="0em" dy="0.3em" style="text-anchor: end; visibility: inherit; font-family: Roboto, sans-serif; font-size: 12px; font-weight: 200;" fill="rgb(33, 33, 33)" stroke="none" stroke-width="1px">0.4</text><text x="0" y="34.27272727272729" dx="0em" dy="0.3em" style="text-anchor: end; visibility: inherit; font-family: Roboto, sans-serif; font-size: 12px; font-weight: 200;" fill="rgb(33, 33, 33)" stroke="none" stroke-width="1px">0.45</text><text x="0" y="0" dx="0em" dy="0.3em" style="text-anchor: end; visibility: hidden; font-family: Roboto, sans-serif; font-size: 12px; font-weight: 200;" fill="rgb(33, 33, 33)" stroke="none" stroke-width="1px">0.5</text></g><line x1="61.953125" y1="0" x2="61.953125" y2="377" fill="rgb(0, 0, 0)" stroke="rgb(204, 204, 204)" stroke-width="1px"></line></g></g><g transform="translate(61, 0)" clip-path="url(#clip_0)"><clipPath id="clip_0"><rect width="1001" height="377"></rect></clipPath><g><g><g><line x1="0" y1="0" x2="0" y2="377" fill="rgb(0, 0, 0)" stroke="rgb(66, 66, 66)" stroke-width="1px" opacity="0.25"></line><line x1="71.53191964285715" y1="0" x2="71.53191964285715" y2="377" fill="rgb(0, 0, 0)" stroke="rgb(66, 66, 66)" stroke-width="1px" opacity="0.25"></line><line x1="143.0638392857143" y1="0" x2="143.0638392857143" y2="377" fill="rgb(0, 0, 0)" stroke="rgb(66, 66, 66)" stroke-width="1px" opacity="0.25"></line><line x1="214.59575892857143" y1="0" x2="214.59575892857143" y2="377" fill="rgb(0, 0, 0)" stroke="rgb(66, 66, 66)" stroke-width="1px" opacity="0.25"></line><line x1="286.1276785714286" y1="0" x2="286.1276785714286" y2="377" fill="rgb(0, 0, 0)" stroke="rgb(66, 66, 66)" stroke-width="1px" opacity="0.25"></line><line x1="357.6595982142858" y1="0" x2="357.6595982142858" y2="377" fill="rgb(0, 0, 0)" stroke="rgb(66, 66, 66)" stroke-width="1px" opacity="0.25"></line><line x1="429.19151785714286" y1="0" x2="429.19151785714286" y2="377" fill="rgb(0, 0, 0)" stroke="rgb(66, 66, 66)" stroke-width="1px" opacity="0.25"></line><line x1="500.72343750000005" y1="0" x2="500.72343750000005" y2="377" fill="rgb(0, 0, 0)" stroke="rgb(66, 66, 66)" stroke-width="1px" opacity="0.25"></line><line x1="572.2553571428572" y1="0" x2="572.2553571428572" y2="377" fill="rgb(0, 0, 0)" stroke="rgb(66, 66, 66)" stroke-width="1px" opacity="0.25"></line><line x1="643.7872767857144" y1="0" x2="643.7872767857144" y2="377" fill="rgb(0, 0, 0)" stroke="rgb(66, 66, 66)" stroke-width="1px" opacity="0.25"></line><line x1="715.3191964285716" y1="0" x2="715.3191964285716" y2="377" fill="rgb(0, 0, 0)" stroke="rgb(66, 66, 66)" stroke-width="1px" opacity="0.25"></line><line x1="786.8511160714286" y1="0" x2="786.8511160714286" y2="377" fill="rgb(0, 0, 0)" stroke="rgb(66, 66, 66)" stroke-width="1px" opacity="0.25"></line><line x1="858.3830357142857" y1="0" x2="858.3830357142857" y2="377" fill="rgb(0, 0, 0)" stroke="rgb(66, 66, 66)" stroke-width="1px" opacity="0.25"></line><line x1="929.914955357143" y1="0" x2="929.914955357143" y2="377" fill="rgb(0, 0, 0)" stroke="rgb(66, 66, 66)" stroke-width="1px" opacity="0.25"></line><line x1="1001.4468750000001" y1="0" x2="1001.4468750000001" y2="377" fill="rgb(0, 0, 0)" stroke="rgb(66, 66, 66)" stroke-width="1px" opacity="0.25"></line></g><g><line x1="0" y1="377" x2="1001.4468750000001" y2="377" fill="rgb(0, 0, 0)" stroke="rgb(66, 66, 66)" stroke-width="1px" opacity="0.25"></line><line x1="0" y1="342.7272727272727" x2="1001.4468750000001" y2="342.7272727272727" fill="rgb(0, 0, 0)" stroke="rgb(66, 66, 66)" stroke-width="1px" opacity="0.25"></line><line x1="0" y1="308.45454545454544" x2="1001.4468750000001" y2="308.45454545454544" fill="rgb(0, 0, 0)" stroke="rgb(66, 66, 66)" stroke-width="1px" opacity="0.25"></line><line x1="0" y1="274.1818181818182" x2="1001.4468750000001" y2="274.1818181818182" fill="rgb(0, 0, 0)" stroke="rgb(66, 66, 66)" stroke-width="1px" opacity="0.25"></line><line x1="0" y1="239.9090909090909" x2="1001.4468750000001" y2="239.9090909090909" fill="rgb(0, 0, 0)" stroke="rgb(66, 66, 66)" stroke-width="1px" opacity="0.25"></line><line x1="0" y1="205.63636363636363" x2="1001.4468750000001" y2="205.63636363636363" fill="rgb(0, 0, 0)" stroke="rgb(66, 66, 66)" stroke-width="1px" opacity="0.25"></line><line x1="0" y1="171.36363636363637" x2="1001.4468750000001" y2="171.36363636363637" fill="rgb(0, 0, 0)" stroke="rgb(66, 66, 66)" stroke-width="1px" opacity="0.25"></line><line x1="0" y1="137.09090909090915" x2="1001.4468750000001" y2="137.09090909090915" fill="rgb(0, 0, 0)" stroke="rgb(66, 66, 66)" stroke-width="1px" opacity="0.25"></line><line x1="0" y1="102.81818181818186" x2="1001.4468750000001" y2="102.81818181818186" fill="rgb(0, 0, 0)" stroke="rgb(66, 66, 66)" stroke-width="1px" opacity="0.25"></line><line x1="0" y1="68.54545454545458" x2="1001.4468750000001" y2="68.54545454545458" fill="rgb(0, 0, 0)" stroke="rgb(66, 66, 66)" stroke-width="1px" opacity="0.25"></line><line x1="0" y1="34.27272727272729" x2="1001.4468750000001" y2="34.27272727272729" fill="rgb(0, 0, 0)" stroke="rgb(66, 66, 66)" stroke-width="1px" opacity="0.25"></line><line x1="0" y1="0" x2="1001.4468750000001" y2="0" fill="rgb(0, 0, 0)" stroke="rgb(66, 66, 66)" stroke-width="1px" opacity="0.25"></line></g></g></g><g><g><line x1="0" y1="342.7272727272727" x2="1001.4468750000001" y2="342.7272727272727" fill="rgb(0, 0, 0)" stroke="rgb(153, 153, 153)" stroke-width="1.5px"></line></g></g><g><g><line x1="71.53191964285715" y1="0" x2="71.53191964285715" y2="377" fill="rgb(0, 0, 0)" stroke="rgb(153, 153, 153)" stroke-width="1.5px"></line></g></g><g><g><g><g><g><path stroke="rgb(255, 112, 67)" stroke-width="2px" d="M103.72128348214288,-25.407289943240805L107.29787946428571,0.5645143074259238L110.87447544642858,24.613149097746458L114.45107142857144,44.02279109178545L118.0276674107143,63.17884802517612L121.60426339285715,78.24702980920942L125.18085937500001,92.59549037343997L128.75745535714285,104.04813779271625L132.33405133928574,116.37680890511339L135.91064732142857,128.61426282618424L139.48724330357143,138.53475899747133L143.0638392857143,148.5726478873223L146.64043526785716,157.4633640112584L150.21703125000002,166.08755329490006L153.79362723214288,174.0721148219243L157.37022321428572,182.47936578632223L160.9468191964286,188.08146370989323L164.52341517857144,193.95140857933936L168.10001116071427,201.5324940668054L171.67660714285716,209.07364497963925L175.253203125,214.37148989097548L178.8297991071429,219.61998340987097L182.40639508928572,224.42193614235072L185.9829910714286,230.32899692668772L189.55958705357145,235.2385110447354L193.1361830357143,240.0926037923032L196.71277901785714,244.9111231046537L200.28937500000004,248.73975543014868L203.86597098214287,252.2393921777016L207.44256696428576,255.78626057162504L211.0191629464286,259.32602513699817L214.59575892857143,262.03047605079036L218.17235491071432,265.7193546361348L221.74895089285715,268.81843356489037L225.32554687500001,271.985022274581L228.90214285714288,276.6997195176778L232.47873883928574,278.53116061383247L236.0553348214286,280.32239000209626L239.63193080357146,283.011965763788L243.2085267857143,284.42701081442715L246.7851227678572,286.34022327451015L250.36171875000002,289.47162074614505L253.93831473214286,292.0853083569745L257.5149107142857,293.4860755672714L261.0915066964286,295.60508193957634L264.6681026785715,297.74583885413335L268.2446986607143,299.0775187707826L271.82129464285714,299.97011006076644L275.39789062500006,301.73372069661997L278.97448660714286,302.78037888695826L282.5510825892857,302.67400167031195L286.1276785714286,305.0889153117886L289.7042745535715,306.25353548843464L293.2808705357143,307.9477145499028L296.8574665178572,309.60720782380974L300.43406250000004,311.2855406397681L304.01065848214284,312.3548573837232L307.58725446428576,312.44163964792307L311.1638504464286,314.1784491569597L314.74044642857143,316.0897929627179L318.3170424107143,315.8212102150011L321.8936383928572,315.99454475882897L325.470234375,314.9639269020751L329.0468303571429,315.8442685272073L332.62342633928574,318.18965335284327L336.20002232142855,319.6001374290971L339.77661830357147,319.6265374326298L343.35321428571433,320.80609845296624L346.9298102678572,321.18338542983577L350.50640625,321.8141218699445L354.0830022321429,322.810096111903L357.6595982142858,323.3582139224954L361.2361941964286,323.81549843372335L364.81279017857145,323.929401014575L368.38938616071437,323.69963884042687L371.9659821428572,324.36194197240576L375.54257812500003,324.68806591220016L379.1191741071429,324.79496878383407L382.6957700892857,325.44143856491627L386.2723660714286,325.74772892089635L389.8489620535715,325.81996550457666L393.4255580357143,326.3844088103375L397.00215401785715,326.53620738601694L400.57875000000007,327.38530933828577L404.1553459821429,327.91216915422444L407.73194196428574,328.0570405647491L411.3085379464286,328.19352054015445L414.8851339285715,328.0807273550858L418.4617299107143,327.76725345635595L422.0383258928572,328.234011955763L425.61492187500005,328.95467797489357L429.19151785714286,329.5740690950835L432.7681138392858,329.9209642714648L436.34470982142864,330.9319075128993L439.92130580357144,330.9149998114714L443.4979017857143,331.4358792585313L447.0744977678572,331.28007936588193L450.65109375000003,331.0304738157033L454.2276897321429,331.58192749418146L457.80428571428575,331.50379749404874L461.38088169642856,331.27378022125765L464.9574776785715,331.57982291821213L468.53407366071434,330.862635602994L472.1106696428572,331.58290051316L475.687265625,332.4457777978846L479.2638616071429,332.1354475785957L482.8404575892858,332.21299227661075L486.4170535714286,331.37536658479297L489.99364955357146,332.06356797907506L493.5702455357144,332.4048062263463L497.1468415178572,333.36048341791127L500.72343750000005,334.44825593152007L504.3000334821429,334.49547515671463L507.8766294642857,334.5985637157999L511.4532254464286,334.9179485056794L515.0298214285714,335.0340057408483L518.6064174107144,334.45984656744315L522.1830133928572,334.553164349477L525.7596093750001,335.1924350279995L529.336205357143,335.36684012062284L532.9128013392858,334.64648238006845L536.4893973214286,334.2169461198936L540.0659933035714,335.0328087794845L543.6425892857143,335.1769115971907L547.2191852678571,335.8088977583226L550.7957812500001,336.9234029399549L554.372377232143,338.2145857386651L557.9489732142857,339.1699487139636L561.5255691964286,339.73513811349L565.1021651785715,340.1868962051301L568.6787611607143,340.48097586906835L572.2553571428572,340.65242094427117L575.831953125,340.8580895263647L579.408549107143,340.9458065499536L582.9851450892858,341.0281927719923L586.5617410714286,341.0767383070823L590.1383370535715,341.2112477814773L593.7149330357144,341.27231854695793L597.2915290178572,341.3208688547758L600.8681250000001,341.29948584162935L604.4447209821428,341.33742464713345L608.0213169642857,341.39701542533413L611.5979129464287,341.33994073355564L615.1745089285715,341.40021515444425L618.7511049107144,341.3467845820151L622.3277008928573,341.40251718020784L625.904296875,341.44982741246224L629.4808928571429,341.493297688431L633.0574888392857,341.5087885350968L636.6340848214286,341.5207680663986L640.2106808035714,341.5545093633465L643.7872767857144,341.6408035442642L647.3638727678573,341.62220863074486L650.94046875,341.64218256799995L654.5170647321429,341.66539448999L658.0936607142858,341.6732877778723L661.6702566964286,341.66461395519286L665.2468526785715,341.60222319773743L668.8234486607143,341.59370355875643L672.4000446428571,341.5929196677783L675.9766406250001,341.66342619418197L679.5532366071429,341.6981098083339L683.1298325892858,341.7250633561042L686.7064285714287,341.7084814881307L690.2830245535715,341.67492822918496L693.8596205357144,341.7473027637033L697.4362165178571,341.755919885434L701.0128125,341.78194307339913L704.589408482143,341.76656938504357L708.1660044642858,341.79354255464835L711.7426004464287,341.8278573220366L715.3191964285716,341.78566652653546L718.8957924107143,341.7898085295563L722.4723883928572,341.80601993947386L726.048984375,341.8076719895971L729.6255803571429,341.8248004906053L733.2021763392858,341.8221987996964L736.7787723214287,341.81780804126316L740.3553683035715,341.81696998553105L743.9319642857143,341.81530172685626L747.5085602678572,341.83078024580504L751.0851562500001,341.8772526955848L754.6617522321429,341.8592142872408L758.2383482142858,341.8529841897269L761.8149441964287,341.8395522459119L765.3915401785714,341.81361293746437L768.9681361607144,341.7912672107971L772.5447321428572,341.82052454610374L776.1213281250001,341.83362618788766L779.697924107143,341.84102801865225L783.2745200892858,341.8174055165667L786.8511160714286,341.81655444851816L790.4277120535714,341.80774075934596L794.0043080357143,341.828522264425L797.5809040178572,341.85042829662785L801.1575000000001,341.85714187244935L804.734095982143,341.8409196692293L808.3106919642858,341.828035019841L811.8872879464286,341.84067344514517L815.4638839285715,341.865394590397L819.0404799107143,341.8747220541282L822.6170758928572,341.8341210658147L826.1936718750001,341.8553882496986L829.770267857143,341.87378781118116L833.3468638392858,341.83331282888116L836.9234598214287,341.8506905787523L840.5000558035715,341.8561938560608L844.0766517857144,341.8236023402899L847.6532477678572,341.84985420925284L851.2298437500001,341.87376531817443L854.8064397321428,341.88429032589545L858.3830357142857,341.855094141811L861.9596316964287,341.8390456293821L865.5362276785715,341.83597290068684L869.1128236607144,341.85345230242297L872.6894196428573,341.84898993033784L876.2660156250001,341.87038042780404L879.8426116071429,341.86284675618634L883.4192075892857,341.8441345835792L886.9958035714286,341.84325971739935L890.5723995535715,341.85721761293337L894.1489955357144,341.85992418051967L897.7255915178573,341.8803179724492L901.3021875000001,341.88296339671786L904.8787834821429,341.88049627247625L908.4553794642858,341.86139289919487L912.0319754464286,341.8458467479482L915.6085714285715,341.86768850067614L919.1851674107144,341.8862715807749L922.7617633928571,341.910814147597L926.3383593750001,341.9093559427436" style="fill: none;" fill="none"></path></g></g></g></g><g opacity="0.2"><g><g><g><path stroke="rgb(255, 112, 67)" stroke-width="2px" d="M100.14468750000002,-1.1138646169142061L103.72128348214288,22.57815794511273L107.29787946428571,39.286658330397195L110.87447544642858,60.55522967468611L114.45107142857144,73.07387823408304L118.0276674107143,91.87540471553807L121.60426339285715,100.83159040321004L125.18085937500001,114.10806157372215L128.75745535714285,121.22226254506548L132.33405133928574,134.86668532544917L135.91064732142857,146.9685794548555L139.48724330357143,153.41459648175675L143.0638392857143,163.628930720416L146.64043526785716,170.79914564436135L150.21703125000002,179.0236669507894L153.79362723214288,186.04886252771726L157.37022321428572,195.09018247777766L160.9468191964286,196.48458670486104L164.52341517857144,202.75631086392838L168.10001116071427,212.90411065925252L171.67660714285716,220.38536440242422L175.253203125,222.3182543299415L178.8297991071429,227.4927219477567L182.40639508928572,231.62486428564245L185.9829910714286,239.18958739800888L189.55958705357145,242.60278187014842L193.1361830357143,247.3737427050417L196.71277901785714,252.13890194892883L200.28937500000004,254.48270385915583L203.86597098214287,257.48884726654404L207.44256696428576,261.10656314275485L211.0191629464286,264.63567197322845L214.59575892857143,266.08715241605586L218.17235491071432,271.25267250971365L221.74895089285715,273.46705195578664L225.32554687500001,276.7349053377455L228.90214285714288,283.7717653810978L232.47873883928574,281.2783222577789L236.0553348214286,283.0092340843244L239.63193080357146,287.0463294061748L243.2085267857143,286.54957839033824L246.7851227678572,289.210041964596L250.36171875000002,294.1687169535594L253.93831473214286,296.0058397731998L257.5149107142857,295.58722638271075L261.0915066964286,298.78359149802816L264.6681026785715,300.9569742259654L268.2446986607143,301.07503864575517L271.82129464285714,301.30899699574167L275.39789062500006,304.37913665039974L278.97448660714286,304.35036617246544L282.5510825892857,302.5144358453425L286.1276785714286,308.7112857740034L289.7042745535715,308.00046575340355L293.2808705357143,310.488983142105L296.8574665178572,312.0964477346702L300.43406250000004,313.80303986370564L304.01065848214284,313.95883249965584L307.58725446428576,312.57181304422295L311.1638504464286,316.78366342051464L314.74044642857143,318.95680867135525L318.3170424107143,315.41833609342575L321.8936383928572,316.25454657457095L325.470234375,313.4180001169443L329.0468303571429,317.16478096490556L332.62342633928574,321.70773059129715L336.20002232142855,321.7158635434779L339.77661830357147,319.6661374379288L343.35321428571433,322.57543998347086L346.9298102678572,321.74931589514017L350.50640625,322.7602265301076L354.0830022321429,324.30405747484076L357.6595982142858,324.180390638384L361.2361941964286,324.5014252005653L364.81279017857145,324.10025488585234L368.38938616071437,323.35499557920474L371.9659821428572,325.35539667037403L375.54257812500003,325.17725182189184L379.1191741071429,324.9553230912848L382.6957700892857,326.41114323653954L386.2723660714286,326.20716445486653L389.8489620535715,325.9283203800971L393.4255580357143,327.2310737689788L397.00215401785715,326.76390524953604L400.57875000000007,328.658962266689L404.1553459821429,328.70245887813246L407.73194196428574,328.27434768053615L411.3085379464286,328.3982405032624L414.8851339285715,327.9115375774828L418.4617299107143,327.2970426082611L422.0383258928572,328.93414970487356L425.61492187500005,330.0356770035895L429.19151785714286,330.5031557753682L432.7681138392858,330.4413070360368L436.34470982142864,332.44832237505096L439.92130580357144,330.8896382593296L443.4979017857143,332.21719842912125L447.0744977678572,331.04637952690774L450.65109375000003,330.6560654904355L454.2276897321429,332.40910801189864L457.80428571428575,331.38660249384964L461.38088169642856,330.92875431207096L464.9574776785715,332.03888696364385L468.53407366071434,329.78685463016683L472.1106696428572,332.66329787840897L475.687265625,333.7400937249715L479.2638616071429,331.66995224966246L482.8404575892858,332.32930932363325L486.4170535714286,330.1189280470664L489.99364955357146,333.0958700704981L493.5702455357144,332.9166635972532L497.1468415178572,334.79399920525873L500.72343750000005,336.0799147019332L504.3000334821429,334.5663039945066L507.8766294642857,334.7531965544278L511.4532254464286,335.3970256904987L515.0298214285714,335.2080915936015L518.6064174107144,333.5986078073355L522.1830133928572,334.69314102252775L525.7596093750001,336.15134104578334L529.336205357143,335.62844775955784L532.9128013392858,333.56594576923686L536.4893973214286,333.57264172963124L540.0659933035714,336.25660276887095L543.6425892857143,335.3930658237501L547.2191852678571,336.7568770000203L550.7957812500001,338.5951607124033L554.372377232143,340.15135993673044L557.9489732142857,340.60299317691135L561.5255691964286,340.5829222127795L565.1021651785715,340.8645333425904L568.6787611607143,340.9220953649757L572.2553571428572,340.9095885570754L575.831953125,341.166592399505L579.408549107143,341.0773820853369L582.9851450892858,341.1517721050503L586.5617410714286,341.14955660971725L590.1383370535715,341.4130119930699L593.7149330357144,341.36392469517887L597.2915290178572,341.39369431650266L600.8681250000001,341.2674113219096L604.4447209821428,341.3943328553895L608.0213169642857,341.48640159263533L611.5979129464287,341.25432869588786L615.1745089285715,341.4906267857772L618.7511049107144,341.2666387233714L622.3277008928573,341.4861160774969L625.904296875,341.52079276084396L629.4808928571429,341.5585031023842L633.0574888392857,341.5320248050954L636.6340848214286,341.53873736335134L640.2106808035714,341.60512130876833L643.7872767857144,341.77024481564086L647.3638727678573,341.59431626046586L650.94046875,341.67214347388256L654.5170647321429,341.70021237297493L658.0936607142858,341.6851277096959L661.6702566964286,341.6516032211736L665.2468526785715,341.5086370615542L668.8234486607143,341.5809241002849L672.4000446428571,341.59174383131113L675.9766406250001,341.7691859837875L679.5532366071429,341.7501352295618L683.1298325892858,341.7654936777597L686.7064285714287,341.6836086861705L690.2830245535715,341.62459834076634L693.8596205357144,341.85586456548083L697.4362165178571,341.7688455680301L701.0128125,341.82097785534677L704.589408482143,341.74350885251033L708.1660044642858,341.8340023090555L711.7426004464287,341.8793294731189L715.3191964285716,341.72238033328375L718.8957924107143,341.7960215340877L722.4723883928572,341.8303370543502L726.048984375,341.810150064782L729.6255803571429,341.8504932421175L733.2021763392858,341.8182962633331L736.7787723214287,341.8112219036134L740.3553683035715,341.81571290193295L743.9319642857143,341.812799338844L747.5085602678572,341.85399802422825L751.0851562500001,341.9469613702545L754.6617522321429,341.8321566747248L758.2383482142858,341.8436390434561L761.8149441964287,341.8194043301893L765.3915401785714,341.7747039747933L768.9681361607144,341.75774862079624L772.5447321428572,341.86441054906356L776.1213281250001,341.85327865056354L779.697924107143,341.852130764799L783.2745200892858,341.7819717634385L786.8511160714286,341.8152778464454L790.4277120535714,341.7945202255875L794.0043080357143,341.8596945220435L797.5809040178572,341.8832873449322L801.1575000000001,341.8672122361816L804.734095982143,341.8165863643993L808.3106919642858,341.80870804575864L811.8872879464286,341.85963108310136L815.4638839285715,341.9024763082747L819.0404799107143,341.8887132497251L822.6170758928572,341.7732195833444L826.1936718750001,341.88728902552447L829.770267857143,341.901387153405L833.3468638392858,341.7726003554311L836.9234598214287,341.876757203559L840.5000558035715,341.86444877202365L844.0766517857144,341.7747150666334L847.6532477678572,341.8892320126973L851.2298437500001,341.90963198155674L854.8064397321428,341.90007783747706L858.3830357142857,341.8112998656844L861.9596316964287,341.81497286073864L865.5362276785715,341.831363807644L869.1128236607144,341.87967140502724L872.6894196428573,341.8422963722101L876.2660156250001,341.90246617400345L879.8426116071429,341.85154624875975L883.4192075892857,341.81606632466855L886.9958035714286,341.8419474181296L890.5723995535715,341.8781544562345L894.1489955357144,341.86398403189907L897.7255915178573,341.91090866034347L901.3021875000001,341.8869315331209L904.8787834821429,341.8767955861139L908.4553794642858,341.8327378392728L912.0319754464286,341.82252752107826L915.6085714285715,341.90045112976804L919.1851674107144,341.9141462009231L922.7617633928571,341.9476279978302L926.3383593750001,341.9071686354635" style="fill: none;" fill="none"></path></g></g></g></g></g></g><g transform="translate(61, 377)" clip-path="url(#clip_1)"><clipPath id="clip_1"><rect width="1001" height="23"></rect></clipPath><g><g><line x1="0" y1="0" x2="0" y2="5" style="visibility: inherit;" fill="rgb(0, 0, 0)" stroke="rgb(204, 204, 204)" stroke-width="1px"></line><line x1="71.53191964285715" y1="0" x2="71.53191964285715" y2="5" style="visibility: inherit;" fill="rgb(0, 0, 0)" stroke="rgb(204, 204, 204)" stroke-width="1px"></line><line x1="143.0638392857143" y1="0" x2="143.0638392857143" y2="5" style="visibility: inherit;" fill="rgb(0, 0, 0)" stroke="rgb(204, 204, 204)" stroke-width="1px"></line><line x1="214.59575892857143" y1="0" x2="214.59575892857143" y2="5" style="visibility: inherit;" fill="rgb(0, 0, 0)" stroke="rgb(204, 204, 204)" stroke-width="1px"></line><line x1="286.1276785714286" y1="0" x2="286.1276785714286" y2="5" style="visibility: inherit;" fill="rgb(0, 0, 0)" stroke="rgb(204, 204, 204)" stroke-width="1px"></line><line x1="357.6595982142858" y1="0" x2="357.6595982142858" y2="5" style="visibility: inherit;" fill="rgb(0, 0, 0)" stroke="rgb(204, 204, 204)" stroke-width="1px"></line><line x1="429.19151785714286" y1="0" x2="429.19151785714286" y2="5" style="visibility: inherit;" fill="rgb(0, 0, 0)" stroke="rgb(204, 204, 204)" stroke-width="1px"></line><line x1="500.72343750000005" y1="0" x2="500.72343750000005" y2="5" style="visibility: inherit;" fill="rgb(0, 0, 0)" stroke="rgb(204, 204, 204)" stroke-width="1px"></line><line x1="572.2553571428572" y1="0" x2="572.2553571428572" y2="5" style="visibility: inherit;" fill="rgb(0, 0, 0)" stroke="rgb(204, 204, 204)" stroke-width="1px"></line><line x1="643.7872767857144" y1="0" x2="643.7872767857144" y2="5" style="visibility: inherit;" fill="rgb(0, 0, 0)" stroke="rgb(204, 204, 204)" stroke-width="1px"></line><line x1="715.3191964285716" y1="0" x2="715.3191964285716" y2="5" style="visibility: inherit;" fill="rgb(0, 0, 0)" stroke="rgb(204, 204, 204)" stroke-width="1px"></line><line x1="786.8511160714286" y1="0" x2="786.8511160714286" y2="5" style="visibility: inherit;" fill="rgb(0, 0, 0)" stroke="rgb(204, 204, 204)" stroke-width="1px"></line><line x1="858.3830357142857" y1="0" x2="858.3830357142857" y2="5" style="visibility: inherit;" fill="rgb(0, 0, 0)" stroke="rgb(204, 204, 204)" stroke-width="1px"></line><line x1="929.914955357143" y1="0" x2="929.914955357143" y2="5" style="visibility: inherit;" fill="rgb(0, 0, 0)" stroke="rgb(204, 204, 204)" stroke-width="1px"></line><line x1="1001.4468750000001" y1="0" x2="1001.4468750000001" y2="5" style="visibility: inherit;" fill="rgb(0, 0, 0)" stroke="rgb(204, 204, 204)" stroke-width="1px"></line></g><g transform="translate(0, 8)"><text x="0" y="0" dx="0em" dy="0.95em" style="text-anchor: middle; visibility: hidden; font-family: Roboto, sans-serif; font-size: 12px; font-weight: 200;" fill="rgb(33, 33, 33)" stroke="none" stroke-width="1px">-20</text><text x="71.53191964285715" y="0" dx="0em" dy="0.95em" style="text-anchor: middle; visibility: inherit; font-family: Roboto, sans-serif; font-size: 12px; font-weight: 200;" fill="rgb(33, 33, 33)" stroke="none" stroke-width="1px">0</text><text x="143.0638392857143" y="0" dx="0em" dy="0.95em" style="text-anchor: middle; visibility: inherit; font-family: Roboto, sans-serif; font-size: 12px; font-weight: 200;" fill="rgb(33, 33, 33)" stroke="none" stroke-width="1px">20</text><text x="214.59575892857143" y="0" dx="0em" dy="0.95em" style="text-anchor: middle; visibility: inherit; font-family: Roboto, sans-serif; font-size: 12px; font-weight: 200;" fill="rgb(33, 33, 33)" stroke="none" stroke-width="1px">40</text><text x="286.1276785714286" y="0" dx="0em" dy="0.95em" style="text-anchor: middle; visibility: inherit; font-family: Roboto, sans-serif; font-size: 12px; font-weight: 200;" fill="rgb(33, 33, 33)" stroke="none" stroke-width="1px">60</text><text x="357.6595982142858" y="0" dx="0em" dy="0.95em" style="text-anchor: middle; visibility: inherit; font-family: Roboto, sans-serif; font-size: 12px; font-weight: 200;" fill="rgb(33, 33, 33)" stroke="none" stroke-width="1px">80</text><text x="429.19151785714286" y="0" dx="0em" dy="0.95em" style="text-anchor: middle; visibility: inherit; font-family: Roboto, sans-serif; font-size: 12px; font-weight: 200;" fill="rgb(33, 33, 33)" stroke="none" stroke-width="1px">100</text><text x="500.72343750000005" y="0" dx="0em" dy="0.95em" style="text-anchor: middle; visibility: inherit; font-family: Roboto, sans-serif; font-size: 12px; font-weight: 200;" fill="rgb(33, 33, 33)" stroke="none" stroke-width="1px">120</text><text x="572.2553571428572" y="0" dx="0em" dy="0.95em" style="text-anchor: middle; visibility: inherit; font-family: Roboto, sans-serif; font-size: 12px; font-weight: 200;" fill="rgb(33, 33, 33)" stroke="none" stroke-width="1px">140</text><text x="643.7872767857144" y="0" dx="0em" dy="0.95em" style="text-anchor: middle; visibility: inherit; font-family: Roboto, sans-serif; font-size: 12px; font-weight: 200;" fill="rgb(33, 33, 33)" stroke="none" stroke-width="1px">160</text><text x="715.3191964285716" y="0" dx="0em" dy="0.95em" style="text-anchor: middle; visibility: inherit; font-family: Roboto, sans-serif; font-size: 12px; font-weight: 200;" fill="rgb(33, 33, 33)" stroke="none" stroke-width="1px">180</text><text x="786.8511160714286" y="0" dx="0em" dy="0.95em" style="text-anchor: middle; visibility: inherit; font-family: Roboto, sans-serif; font-size: 12px; font-weight: 200;" fill="rgb(33, 33, 33)" stroke="none" stroke-width="1px">200</text><text x="858.3830357142857" y="0" dx="0em" dy="0.95em" style="text-anchor: middle; visibility: inherit; font-family: Roboto, sans-serif; font-size: 12px; font-weight: 200;" fill="rgb(33, 33, 33)" stroke="none" stroke-width="1px">220</text><text x="929.914955357143" y="0" dx="0em" dy="0.95em" style="text-anchor: middle; visibility: inherit; font-family: Roboto, sans-serif; font-size: 12px; font-weight: 200;" fill="rgb(33, 33, 33)" stroke="none" stroke-width="1px">240</text><text x="1001.4468750000001" y="0" dx="0em" dy="0.95em" style="text-anchor: middle; visibility: hidden; font-family: Roboto, sans-serif; font-size: 12px; font-weight: 200;" fill="rgb(33, 33, 33)" stroke="none" stroke-width="1px">260</text></g><line x1="0" y1="0" x2="1001.4468750000001" y2="0" fill="rgb(0, 0, 0)" stroke="rgb(204, 204, 204)" stroke-width="1px"></line></g></g></g></g></svg>